<?xml version="1.0" encoding="utf-8" standalone="no"?>
<!DOCTYPE svg PUBLIC "-//W3C//DTD SVG 1.1//EN"
  "http://www.w3.org/Graphics/SVG/1.1/DTD/svg11.dtd">
<svg xmlns:xlink="http://www.w3.org/1999/xlink" width="972pt" height="324pt" viewBox="0 0 972 324" xmlns="http://www.w3.org/2000/svg" version="1.1">
 <metadata>
  <rdf:RDF xmlns:dc="http://purl.org/dc/elements/1.1/" xmlns:cc="http://creativecommons.org/ns#" xmlns:rdf="http://www.w3.org/1999/02/22-rdf-syntax-ns#">
   <cc:Work>
    <dc:type rdf:resource="http://purl.org/dc/dcmitype/StillImage"/>
    <dc:date>2026-08-17T10:23:46.369933</dc:date>
    <dc:format>image/svg+xml</dc:format>
    <dc:creator>
     <cc:Agent>
      <dc:title>Matplotlib v3.11.1, https://matplotlib.org/</dc:title>
     </cc:Agent>
    </dc:creator>
   </cc:Work>
  </rdf:RDF>
 </metadata>
 <defs>
  <style type="text/css">*{stroke-linejoin: round; stroke-linecap: butt}</style>
 </defs>
 <g id="figure_1">
  <g id="patch_1">
   <path d="M 0 324
L 972 324
L 972 0
L 0 0
z
" style="fill: #ffffff"/>
  </g>
  <g id="axes_1">
   <g id="patch_2">
    <path d="M 43.088521 271.989507
L 324.921747 271.989507
L 324.921747 18.118365
L 43.088521 18.118365
z
" style="fill: #ffffff"/>
   </g>
   <g id="patch_3">
    <path d="M 55.899122 271.989507
L 109.838496 271.989507
L 109.838496 30.207467
L 55.899122 30.207467
z
" clip-path="url(#paaf463fb99)" style="fill: #999999"/>
   </g>
   <g id="patch_4">
    <path d="M 123.323339 271.989507
L 177.262712 271.989507
L 177.262712 136.591565
L 123.323339 136.591565
z
" clip-path="url(#paaf463fb99)" style="fill: #56b4e9"/>
   </g>
   <g id="patch_5">
    <path d="M 190.747556 271.989507
L 244.686929 271.989507
L 244.686929 199.454895
L 190.747556 199.454895
z
" clip-path="url(#paaf463fb99)" style="fill: #0072b2"/>
   </g>
   <g id="patch_6">
    <path d="M 258.171772 271.989507
L 312.111146 271.989507
L 312.111146 257.482585
L 258.171772 257.482585
z
" clip-path="url(#paaf463fb99)" style="fill: #cc79a7"/>
   </g>
   <g id="matplotlib.axis_1">
    <g id="xtick_1">
     <g id="line2d_1">
      <defs>
       <path id="m513fe61911" d="M 0 0
L 0 3.5
" style="stroke: #000000; stroke-width: 0.8"/>
      </defs>
      <g>
       <use xlink:href="#m513fe61911" x="82.868809" y="271.989507" style="stroke: #000000; stroke-width: 0.8"/>
      </g>
     </g>
     <g id="text_1">
      <!-- Reviewed -->
      <g transform="translate(61.504892 304.084255) rotate(-22) scale(0.1 -0.1)">
       <defs>
        <path id="DejaVuSans-35" d="M 2841 2188
Q 3044 2119 3236 1894
Q 3428 1669 3622 1275
L 4263 0
L 3584 0
L 2988 1197
Q 2756 1666 2539 1819
Q 2322 1972 1947 1972
L 1259 1972
L 1259 0
L 628 0
L 628 4666
L 2053 4666
Q 2853 4666 3247 4331
Q 3641 3997 3641 3322
Q 3641 2881 3436 2590
Q 3231 2300 2841 2188
z
M 1259 4147
L 1259 2491
L 2053 2491
Q 2509 2491 2742 2702
Q 2975 2913 2975 3322
Q 2975 3731 2742 3939
Q 2509 4147 2053 4147
L 1259 4147
z
" transform="scale(0.015625)"/>
        <path id="DejaVuSans-48" d="M 3597 1894
L 3597 1613
L 953 1613
Q 991 1019 1311 708
Q 1631 397 2203 397
Q 2534 397 2845 478
Q 3156 559 3463 722
L 3463 178
Q 3153 47 2828 -22
Q 2503 -91 2169 -91
Q 1331 -91 842 396
Q 353 884 353 1716
Q 353 2575 817 3079
Q 1281 3584 2069 3584
Q 2775 3584 3186 3129
Q 3597 2675 3597 1894
z
M 3022 2063
Q 3016 2534 2758 2815
Q 2500 3097 2075 3097
Q 1594 3097 1305 2825
Q 1016 2553 972 2059
L 3022 2063
z
" transform="scale(0.015625)"/>
        <path id="DejaVuSans-59" d="M 191 3500
L 800 3500
L 1894 563
L 2988 3500
L 3597 3500
L 2284 0
L 1503 0
L 191 3500
z
" transform="scale(0.015625)"/>
        <path id="DejaVuSans-4c" d="M 603 3500
L 1178 3500
L 1178 0
L 603 0
L 603 3500
z
M 603 4863
L 1178 4863
L 1178 4134
L 603 4134
L 603 4863
z
" transform="scale(0.015625)"/>
        <path id="DejaVuSans-5a" d="M 269 3500
L 844 3500
L 1563 769
L 2278 3500
L 2956 3500
L 3675 769
L 4391 3500
L 4966 3500
L 4050 0
L 3372 0
L 2619 2869
L 1863 0
L 1184 0
L 269 3500
z
" transform="scale(0.015625)"/>
        <path id="DejaVuSans-47" d="M 2906 2969
L 2906 4863
L 3481 4863
L 3481 0
L 2906 0
L 2906 525
Q 2725 213 2448 61
Q 2172 -91 1784 -91
Q 1150 -91 751 415
Q 353 922 353 1747
Q 353 2572 751 3078
Q 1150 3584 1784 3584
Q 2172 3584 2448 3432
Q 2725 3281 2906 2969
z
M 947 1747
Q 947 1113 1208 752
Q 1469 391 1925 391
Q 2381 391 2643 752
Q 2906 1113 2906 1747
Q 2906 2381 2643 2742
Q 2381 3103 1925 3103
Q 1469 3103 1208 2742
Q 947 2381 947 1747
z
" transform="scale(0.015625)"/>
       </defs>
       <use xlink:href="#DejaVuSans-35"/>
       <use xlink:href="#DejaVuSans-48" transform="translate(65 0)"/>
       <use xlink:href="#DejaVuSans-59" transform="translate(126.53125 0)"/>
       <use xlink:href="#DejaVuSans-4c" transform="translate(185.71875 0)"/>
       <use xlink:href="#DejaVuSans-48" transform="translate(213.5 0)"/>
       <use xlink:href="#DejaVuSans-5a" transform="translate(275.03125 0)"/>
       <use xlink:href="#DejaVuSans-48" transform="translate(356.8125 0)"/>
       <use xlink:href="#DejaVuSans-47" transform="translate(418.34375 0)"/>
      </g>
     </g>
    </g>
    <g id="xtick_2">
     <g id="line2d_2">
      <g>
       <use xlink:href="#m513fe61911" x="150.293026" y="271.989507" style="stroke: #000000; stroke-width: 0.8"/>
      </g>
     </g>
     <g id="text_2">
      <!-- Primary pool -->
      <g transform="translate(121.974505 309.703939) rotate(-22) scale(0.1 -0.1)">
       <defs>
        <path id="DejaVuSans-33" d="M 1259 4147
L 1259 2394
L 2053 2394
Q 2494 2394 2734 2622
Q 2975 2850 2975 3272
Q 2975 3691 2734 3919
Q 2494 4147 2053 4147
L 1259 4147
z
M 628 4666
L 2053 4666
Q 2838 4666 3239 4311
Q 3641 3956 3641 3272
Q 3641 2581 3239 2228
Q 2838 1875 2053 1875
L 1259 1875
L 1259 0
L 628 0
L 628 4666
z
" transform="scale(0.015625)"/>
        <path id="DejaVuSans-55" d="M 2631 2963
Q 2534 3019 2420 3045
Q 2306 3072 2169 3072
Q 1681 3072 1420 2755
Q 1159 2438 1159 1844
L 1159 0
L 581 0
L 581 3500
L 1159 3500
L 1159 2956
Q 1341 3275 1631 3429
Q 1922 3584 2338 3584
Q 2397 3584 2469 3576
Q 2541 3569 2628 3553
L 2631 2963
z
" transform="scale(0.015625)"/>
        <path id="DejaVuSans-50" d="M 3328 2828
Q 3544 3216 3844 3400
Q 4144 3584 4550 3584
Q 5097 3584 5394 3201
Q 5691 2819 5691 2113
L 5691 0
L 5113 0
L 5113 2094
Q 5113 2597 4934 2840
Q 4756 3084 4391 3084
Q 3944 3084 3684 2787
Q 3425 2491 3425 1978
L 3425 0
L 2847 0
L 2847 2094
Q 2847 2600 2669 2842
Q 2491 3084 2119 3084
Q 1678 3084 1418 2786
Q 1159 2488 1159 1978
L 1159 0
L 581 0
L 581 3500
L 1159 3500
L 1159 2956
Q 1356 3278 1631 3431
Q 1906 3584 2284 3584
Q 2666 3584 2933 3390
Q 3200 3197 3328 2828
z
" transform="scale(0.015625)"/>
        <path id="DejaVuSans-44" d="M 2194 1759
Q 1497 1759 1228 1600
Q 959 1441 959 1056
Q 959 750 1161 570
Q 1363 391 1709 391
Q 2188 391 2477 730
Q 2766 1069 2766 1631
L 2766 1759
L 2194 1759
z
M 3341 1997
L 3341 0
L 2766 0
L 2766 531
Q 2569 213 2275 61
Q 1981 -91 1556 -91
Q 1019 -91 701 211
Q 384 513 384 1019
Q 384 1609 779 1909
Q 1175 2209 1959 2209
L 2766 2209
L 2766 2266
Q 2766 2663 2505 2880
Q 2244 3097 1772 3097
Q 1472 3097 1187 3025
Q 903 2953 641 2809
L 641 3341
Q 956 3463 1253 3523
Q 1550 3584 1831 3584
Q 2591 3584 2966 3190
Q 3341 2797 3341 1997
z
" transform="scale(0.015625)"/>
        <path id="DejaVuSans-5c" d="M 2059 -325
Q 1816 -950 1584 -1140
Q 1353 -1331 966 -1331
L 506 -1331
L 506 -850
L 844 -850
Q 1081 -850 1212 -737
Q 1344 -625 1503 -206
L 1606 56
L 191 3500
L 800 3500
L 1894 763
L 2988 3500
L 3597 3500
L 2059 -325
z
" transform="scale(0.015625)"/>
        <path id="DejaVuSans-3" transform="scale(0.015625)"/>
        <path id="DejaVuSans-53" d="M 1159 525
L 1159 -1331
L 581 -1331
L 581 3500
L 1159 3500
L 1159 2969
Q 1341 3281 1617 3432
Q 1894 3584 2278 3584
Q 2916 3584 3314 3078
Q 3713 2572 3713 1747
Q 3713 922 3314 415
Q 2916 -91 2278 -91
Q 1894 -91 1617 61
Q 1341 213 1159 525
z
M 3116 1747
Q 3116 2381 2855 2742
Q 2594 3103 2138 3103
Q 1681 3103 1420 2742
Q 1159 2381 1159 1747
Q 1159 1113 1420 752
Q 1681 391 2138 391
Q 2594 391 2855 752
Q 3116 1113 3116 1747
z
" transform="scale(0.015625)"/>
        <path id="DejaVuSans-52" d="M 1959 3097
Q 1497 3097 1228 2736
Q 959 2375 959 1747
Q 959 1119 1226 758
Q 1494 397 1959 397
Q 2419 397 2687 759
Q 2956 1122 2956 1747
Q 2956 2369 2687 2733
Q 2419 3097 1959 3097
z
M 1959 3584
Q 2709 3584 3137 3096
Q 3566 2609 3566 1747
Q 3566 888 3137 398
Q 2709 -91 1959 -91
Q 1206 -91 779 398
Q 353 888 353 1747
Q 353 2609 779 3096
Q 1206 3584 1959 3584
z
" transform="scale(0.015625)"/>
        <path id="DejaVuSans-4f" d="M 603 4863
L 1178 4863
L 1178 0
L 603 0
L 603 4863
z
" transform="scale(0.015625)"/>
       </defs>
       <use xlink:href="#DejaVuSans-33"/>
       <use xlink:href="#DejaVuSans-55" transform="translate(58.546875 0)"/>
       <use xlink:href="#DejaVuSans-4c" transform="translate(99.65625 0)"/>
       <use xlink:href="#DejaVuSans-50" transform="translate(127.4375 0)"/>
       <use xlink:href="#DejaVuSans-44" transform="translate(224.84375 0)"/>
       <use xlink:href="#DejaVuSans-55" transform="translate(286.125 0)"/>
       <use xlink:href="#DejaVuSans-5c" transform="translate(327.234375 0)"/>
       <use xlink:href="#DejaVuSans-3" transform="translate(386.421875 0)"/>
       <use xlink:href="#DejaVuSans-53" transform="translate(418.203125 0)"/>
       <use xlink:href="#DejaVuSans-52" transform="translate(481.6875 0)"/>
       <use xlink:href="#DejaVuSans-52" transform="translate(542.875 0)"/>
       <use xlink:href="#DejaVuSans-4f" transform="translate(604.0625 0)"/>
      </g>
     </g>
    </g>
    <g id="xtick_3">
     <g id="line2d_3">
      <g>
       <use xlink:href="#m513fe61911" x="217.717242" y="271.989507" style="stroke: #000000; stroke-width: 0.8"/>
      </g>
     </g>
     <g id="text_3">
      <!-- Preliminary panel -->
      <g transform="translate(178.176175 318.772346) rotate(-22) scale(0.1 -0.1)">
       <defs>
        <path id="DejaVuSans-51" d="M 3513 2113
L 3513 0
L 2938 0
L 2938 2094
Q 2938 2591 2744 2837
Q 2550 3084 2163 3084
Q 1697 3084 1428 2787
Q 1159 2491 1159 1978
L 1159 0
L 581 0
L 581 3500
L 1159 3500
L 1159 2956
Q 1366 3272 1645 3428
Q 1925 3584 2291 3584
Q 2894 3584 3203 3211
Q 3513 2838 3513 2113
z
" transform="scale(0.015625)"/>
       </defs>
       <use xlink:href="#DejaVuSans-33"/>
       <use xlink:href="#DejaVuSans-55" transform="translate(58.546875 0)"/>
       <use xlink:href="#DejaVuSans-48" transform="translate(97.453125 0)"/>
       <use xlink:href="#DejaVuSans-4f" transform="translate(158.984375 0)"/>
       <use xlink:href="#DejaVuSans-4c" transform="translate(186.765625 0)"/>
       <use xlink:href="#DejaVuSans-50" transform="translate(214.546875 0)"/>
       <use xlink:href="#DejaVuSans-4c" transform="translate(311.953125 0)"/>
       <use xlink:href="#DejaVuSans-51" transform="translate(339.734375 0)"/>
       <use xlink:href="#DejaVuSans-44" transform="translate(403.109375 0)"/>
       <use xlink:href="#DejaVuSans-55" transform="translate(464.390625 0)"/>
       <use xlink:href="#DejaVuSans-5c" transform="translate(505.5 0)"/>
       <use xlink:href="#DejaVuSans-3" transform="translate(564.6875 0)"/>
       <use xlink:href="#DejaVuSans-53" transform="translate(596.46875 0)"/>
       <use xlink:href="#DejaVuSans-44" transform="translate(659.953125 0)"/>
       <use xlink:href="#DejaVuSans-51" transform="translate(721.234375 0)"/>
       <use xlink:href="#DejaVuSans-48" transform="translate(784.609375 0)"/>
       <use xlink:href="#DejaVuSans-4f" transform="translate(846.140625 0)"/>
      </g>
     </g>
    </g>
    <g id="xtick_4">
     <g id="line2d_4">
      <g>
       <use xlink:href="#m513fe61911" x="285.141459" y="271.989507" style="stroke: #000000; stroke-width: 0.8"/>
      </g>
     </g>
     <g id="text_4">
      <!-- Reserves -->
      <g transform="translate(265.063863 303.043998) rotate(-22) scale(0.1 -0.1)">
       <defs>
        <path id="DejaVuSans-56" d="M 2834 3397
L 2834 2853
Q 2591 2978 2328 3040
Q 2066 3103 1784 3103
Q 1356 3103 1142 2972
Q 928 2841 928 2578
Q 928 2378 1081 2264
Q 1234 2150 1697 2047
L 1894 2003
Q 2506 1872 2764 1633
Q 3022 1394 3022 966
Q 3022 478 2636 193
Q 2250 -91 1575 -91
Q 1294 -91 989 -36
Q 684 19 347 128
L 347 722
Q 666 556 975 473
Q 1284 391 1588 391
Q 1994 391 2212 530
Q 2431 669 2431 922
Q 2431 1156 2273 1281
Q 2116 1406 1581 1522
L 1381 1569
Q 847 1681 609 1914
Q 372 2147 372 2553
Q 372 3047 722 3315
Q 1072 3584 1716 3584
Q 2034 3584 2315 3537
Q 2597 3491 2834 3397
z
" transform="scale(0.015625)"/>
       </defs>
       <use xlink:href="#DejaVuSans-35"/>
       <use xlink:href="#DejaVuSans-48" transform="translate(65 0)"/>
       <use xlink:href="#DejaVuSans-56" transform="translate(126.53125 0)"/>
       <use xlink:href="#DejaVuSans-48" transform="translate(178.625 0)"/>
       <use xlink:href="#DejaVuSans-55" transform="translate(240.15625 0)"/>
       <use xlink:href="#DejaVuSans-59" transform="translate(281.265625 0)"/>
       <use xlink:href="#DejaVuSans-48" transform="translate(340.453125 0)"/>
       <use xlink:href="#DejaVuSans-56" transform="translate(401.984375 0)"/>
      </g>
     </g>
    </g>
   </g>
   <g id="matplotlib.axis_2">
    <g id="ytick_1">
     <g id="line2d_5">
      <defs>
       <path id="mf9817cfe49" d="M 0 0
L -3.5 0
" style="stroke: #000000; stroke-width: 0.8"/>
      </defs>
      <g>
       <use xlink:href="#mf9817cfe49" x="43.088521" y="271.989507" style="stroke: #000000; stroke-width: 0.8"/>
      </g>
     </g>
     <g id="text_5">
      <!-- 0 -->
      <g transform="translate(29.726021 275.788336) scale(0.1 -0.1)">
       <defs>
        <path id="DejaVuSans-13" d="M 2034 4250
Q 1547 4250 1301 3770
Q 1056 3291 1056 2328
Q 1056 1369 1301 889
Q 1547 409 2034 409
Q 2525 409 2770 889
Q 3016 1369 3016 2328
Q 3016 3291 2770 3770
Q 2525 4250 2034 4250
z
M 2034 4750
Q 2819 4750 3233 4129
Q 3647 3509 3647 2328
Q 3647 1150 3233 529
Q 2819 -91 2034 -91
Q 1250 -91 836 529
Q 422 1150 422 2328
Q 422 3509 836 4129
Q 1250 4750 2034 4750
z
" transform="scale(0.015625)"/>
       </defs>
       <use xlink:href="#DejaVuSans-13"/>
      </g>
     </g>
    </g>
    <g id="ytick_2">
     <g id="line2d_6">
      <g>
       <use xlink:href="#mf9817cfe49" x="43.088521" y="223.633099" style="stroke: #000000; stroke-width: 0.8"/>
      </g>
     </g>
     <g id="text_6">
      <!-- 20 -->
      <g transform="translate(23.363521 227.431927) scale(0.1 -0.1)">
       <defs>
        <path id="DejaVuSans-15" d="M 1228 531
L 3431 531
L 3431 0
L 469 0
L 469 531
Q 828 903 1448 1529
Q 2069 2156 2228 2338
Q 2531 2678 2651 2914
Q 2772 3150 2772 3378
Q 2772 3750 2511 3984
Q 2250 4219 1831 4219
Q 1534 4219 1204 4116
Q 875 4013 500 3803
L 500 4441
Q 881 4594 1212 4672
Q 1544 4750 1819 4750
Q 2544 4750 2975 4387
Q 3406 4025 3406 3419
Q 3406 3131 3298 2873
Q 3191 2616 2906 2266
Q 2828 2175 2409 1742
Q 1991 1309 1228 531
z
" transform="scale(0.015625)"/>
       </defs>
       <use xlink:href="#DejaVuSans-15"/>
       <use xlink:href="#DejaVuSans-13" transform="translate(63.625 0)"/>
      </g>
     </g>
    </g>
    <g id="ytick_3">
     <g id="line2d_7">
      <g>
       <use xlink:href="#mf9817cfe49" x="43.088521" y="175.276691" style="stroke: #000000; stroke-width: 0.8"/>
      </g>
     </g>
     <g id="text_7">
      <!-- 40 -->
      <g transform="translate(23.363521 179.075519) scale(0.1 -0.1)">
       <defs>
        <path id="DejaVuSans-17" d="M 2419 4116
L 825 1625
L 2419 1625
L 2419 4116
z
M 2253 4666
L 3047 4666
L 3047 1625
L 3713 1625
L 3713 1100
L 3047 1100
L 3047 0
L 2419 0
L 2419 1100
L 313 1100
L 313 1709
L 2253 4666
z
" transform="scale(0.015625)"/>
       </defs>
       <use xlink:href="#DejaVuSans-17"/>
       <use xlink:href="#DejaVuSans-13" transform="translate(63.625 0)"/>
      </g>
     </g>
    </g>
    <g id="ytick_4">
     <g id="line2d_8">
      <g>
       <use xlink:href="#mf9817cfe49" x="43.088521" y="126.920283" style="stroke: #000000; stroke-width: 0.8"/>
      </g>
     </g>
     <g id="text_8">
      <!-- 60 -->
      <g transform="translate(23.363521 130.719111) scale(0.1 -0.1)">
       <defs>
        <path id="DejaVuSans-19" d="M 2113 2584
Q 1688 2584 1439 2293
Q 1191 2003 1191 1497
Q 1191 994 1439 701
Q 1688 409 2113 409
Q 2538 409 2786 701
Q 3034 994 3034 1497
Q 3034 2003 2786 2293
Q 2538 2584 2113 2584
z
M 3366 4563
L 3366 3988
Q 3128 4100 2886 4159
Q 2644 4219 2406 4219
Q 1781 4219 1451 3797
Q 1122 3375 1075 2522
Q 1259 2794 1537 2939
Q 1816 3084 2150 3084
Q 2853 3084 3261 2657
Q 3669 2231 3669 1497
Q 3669 778 3244 343
Q 2819 -91 2113 -91
Q 1303 -91 875 529
Q 447 1150 447 2328
Q 447 3434 972 4092
Q 1497 4750 2381 4750
Q 2619 4750 2861 4703
Q 3103 4656 3366 4563
z
" transform="scale(0.015625)"/>
       </defs>
       <use xlink:href="#DejaVuSans-19"/>
       <use xlink:href="#DejaVuSans-13" transform="translate(63.625 0)"/>
      </g>
     </g>
    </g>
    <g id="ytick_5">
     <g id="line2d_9">
      <g>
       <use xlink:href="#mf9817cfe49" x="43.088521" y="78.563875" style="stroke: #000000; stroke-width: 0.8"/>
      </g>
     </g>
     <g id="text_9">
      <!-- 80 -->
      <g transform="translate(23.363521 82.362703) scale(0.1 -0.1)">
       <defs>
        <path id="DejaVuSans-1b" d="M 2034 2216
Q 1584 2216 1326 1975
Q 1069 1734 1069 1313
Q 1069 891 1326 650
Q 1584 409 2034 409
Q 2484 409 2743 651
Q 3003 894 3003 1313
Q 3003 1734 2745 1975
Q 2488 2216 2034 2216
z
M 1403 2484
Q 997 2584 770 2862
Q 544 3141 544 3541
Q 544 4100 942 4425
Q 1341 4750 2034 4750
Q 2731 4750 3128 4425
Q 3525 4100 3525 3541
Q 3525 3141 3298 2862
Q 3072 2584 2669 2484
Q 3125 2378 3379 2068
Q 3634 1759 3634 1313
Q 3634 634 3220 271
Q 2806 -91 2034 -91
Q 1263 -91 848 271
Q 434 634 434 1313
Q 434 1759 690 2068
Q 947 2378 1403 2484
z
M 1172 3481
Q 1172 3119 1398 2916
Q 1625 2713 2034 2713
Q 2441 2713 2670 2916
Q 2900 3119 2900 3481
Q 2900 3844 2670 4047
Q 2441 4250 2034 4250
Q 1625 4250 1398 4047
Q 1172 3844 1172 3481
z
" transform="scale(0.015625)"/>
       </defs>
       <use xlink:href="#DejaVuSans-1b"/>
       <use xlink:href="#DejaVuSans-13" transform="translate(63.625 0)"/>
      </g>
     </g>
    </g>
    <g id="ytick_6">
     <g id="line2d_10">
      <g>
       <use xlink:href="#mf9817cfe49" x="43.088521" y="30.207467" style="stroke: #000000; stroke-width: 0.8"/>
      </g>
     </g>
     <g id="text_10">
      <!-- 100 -->
      <g transform="translate(17.001021 34.006295) scale(0.1 -0.1)">
       <defs>
        <path id="DejaVuSans-14" d="M 794 531
L 1825 531
L 1825 4091
L 703 3866
L 703 4441
L 1819 4666
L 2450 4666
L 2450 531
L 3481 531
L 3481 0
L 794 0
L 794 531
z
" transform="scale(0.015625)"/>
       </defs>
       <use xlink:href="#DejaVuSans-14"/>
       <use xlink:href="#DejaVuSans-13" transform="translate(63.625 0)"/>
       <use xlink:href="#DejaVuSans-13" transform="translate(127.25 0)"/>
      </g>
     </g>
    </g>
    <g id="text_11">
     <!-- Candidate count -->
     <g transform="translate(10.598678 186.311749) rotate(-90) scale(0.1 -0.1)">
      <defs>
       <path id="DejaVuSans-26" d="M 4122 4306
L 4122 3641
Q 3803 3938 3442 4084
Q 3081 4231 2675 4231
Q 1875 4231 1450 3742
Q 1025 3253 1025 2328
Q 1025 1406 1450 917
Q 1875 428 2675 428
Q 3081 428 3442 575
Q 3803 722 4122 1019
L 4122 359
Q 3791 134 3420 21
Q 3050 -91 2638 -91
Q 1578 -91 968 557
Q 359 1206 359 2328
Q 359 3453 968 4101
Q 1578 4750 2638 4750
Q 3056 4750 3426 4639
Q 3797 4528 4122 4306
z
" transform="scale(0.015625)"/>
       <path id="DejaVuSans-57" d="M 1172 4494
L 1172 3500
L 2356 3500
L 2356 3053
L 1172 3053
L 1172 1153
Q 1172 725 1289 603
Q 1406 481 1766 481
L 2356 481
L 2356 0
L 1766 0
Q 1100 0 847 248
Q 594 497 594 1153
L 594 3053
L 172 3053
L 172 3500
L 594 3500
L 594 4494
L 1172 4494
z
" transform="scale(0.015625)"/>
       <path id="DejaVuSans-46" d="M 3122 3366
L 3122 2828
Q 2878 2963 2633 3030
Q 2388 3097 2138 3097
Q 1578 3097 1268 2742
Q 959 2388 959 1747
Q 959 1106 1268 751
Q 1578 397 2138 397
Q 2388 397 2633 464
Q 2878 531 3122 666
L 3122 134
Q 2881 22 2623 -34
Q 2366 -91 2075 -91
Q 1284 -91 818 406
Q 353 903 353 1747
Q 353 2603 823 3093
Q 1294 3584 2113 3584
Q 2378 3584 2631 3529
Q 2884 3475 3122 3366
z
" transform="scale(0.015625)"/>
       <path id="DejaVuSans-58" d="M 544 1381
L 544 3500
L 1119 3500
L 1119 1403
Q 1119 906 1312 657
Q 1506 409 1894 409
Q 2359 409 2629 706
Q 2900 1003 2900 1516
L 2900 3500
L 3475 3500
L 3475 0
L 2900 0
L 2900 538
Q 2691 219 2414 64
Q 2138 -91 1772 -91
Q 1169 -91 856 284
Q 544 659 544 1381
z
M 1991 3584
L 1991 3584
z
" transform="scale(0.015625)"/>
      </defs>
      <use xlink:href="#DejaVuSans-26"/>
      <use xlink:href="#DejaVuSans-44" transform="translate(69.828125 0)"/>
      <use xlink:href="#DejaVuSans-51" transform="translate(131.109375 0)"/>
      <use xlink:href="#DejaVuSans-47" transform="translate(194.484375 0)"/>
      <use xlink:href="#DejaVuSans-4c" transform="translate(257.96875 0)"/>
      <use xlink:href="#DejaVuSans-47" transform="translate(285.75 0)"/>
      <use xlink:href="#DejaVuSans-44" transform="translate(349.234375 0)"/>
      <use xlink:href="#DejaVuSans-57" transform="translate(410.515625 0)"/>
      <use xlink:href="#DejaVuSans-48" transform="translate(449.71875 0)"/>
      <use xlink:href="#DejaVuSans-3" transform="translate(511.25 0)"/>
      <use xlink:href="#DejaVuSans-46" transform="translate(543.03125 0)"/>
      <use xlink:href="#DejaVuSans-52" transform="translate(598.015625 0)"/>
      <use xlink:href="#DejaVuSans-58" transform="translate(659.203125 0)"/>
      <use xlink:href="#DejaVuSans-51" transform="translate(722.578125 0)"/>
      <use xlink:href="#DejaVuSans-57" transform="translate(785.953125 0)"/>
     </g>
    </g>
   </g>
   <g id="patch_7">
    <path d="M 43.088521 271.989507
L 43.088521 18.118365
" style="fill: none; stroke: #000000; stroke-width: 0.8; stroke-linejoin: miter; stroke-linecap: square"/>
   </g>
   <g id="patch_8">
    <path d="M 43.088521 271.989507
L 324.921747 271.989507
" style="fill: none; stroke: #000000; stroke-width: 0.8; stroke-linejoin: miter; stroke-linecap: square"/>
   </g>
   <g id="text_12">
    <!-- 100 -->
    <g transform="translate(73.325059 24.805123) scale(0.1 -0.1)">
     <use xlink:href="#DejaVuSans-14"/>
     <use xlink:href="#DejaVuSans-13" transform="translate(63.625 0)"/>
     <use xlink:href="#DejaVuSans-13" transform="translate(127.25 0)"/>
    </g>
   </g>
   <g id="text_13">
    <!-- 56 -->
    <g transform="translate(143.930526 131.189221) scale(0.1 -0.1)">
     <defs>
      <path id="DejaVuSans-18" d="M 691 4666
L 3169 4666
L 3169 4134
L 1269 4134
L 1269 2991
Q 1406 3038 1543 3061
Q 1681 3084 1819 3084
Q 2600 3084 3056 2656
Q 3513 2228 3513 1497
Q 3513 744 3044 326
Q 2575 -91 1722 -91
Q 1428 -91 1123 -41
Q 819 9 494 109
L 494 744
Q 775 591 1075 516
Q 1375 441 1709 441
Q 2250 441 2565 725
Q 2881 1009 2881 1497
Q 2881 1984 2565 2268
Q 2250 2553 1709 2553
Q 1456 2553 1204 2497
Q 953 2441 691 2322
L 691 4666
z
" transform="scale(0.015625)"/>
     </defs>
     <use xlink:href="#DejaVuSans-18"/>
     <use xlink:href="#DejaVuSans-19" transform="translate(63.625 0)"/>
    </g>
   </g>
   <g id="text_14">
    <!-- 30 -->
    <g transform="translate(211.354742 194.052552) scale(0.1 -0.1)">
     <defs>
      <path id="DejaVuSans-16" d="M 2597 2516
Q 3050 2419 3304 2112
Q 3559 1806 3559 1356
Q 3559 666 3084 287
Q 2609 -91 1734 -91
Q 1441 -91 1130 -33
Q 819 25 488 141
L 488 750
Q 750 597 1062 519
Q 1375 441 1716 441
Q 2309 441 2620 675
Q 2931 909 2931 1356
Q 2931 1769 2642 2001
Q 2353 2234 1838 2234
L 1294 2234
L 1294 2753
L 1863 2753
Q 2328 2753 2575 2939
Q 2822 3125 2822 3475
Q 2822 3834 2567 4026
Q 2313 4219 1838 4219
Q 1578 4219 1281 4162
Q 984 4106 628 3988
L 628 4550
Q 988 4650 1302 4700
Q 1616 4750 1894 4750
Q 2613 4750 3031 4423
Q 3450 4097 3450 3541
Q 3450 3153 3228 2886
Q 3006 2619 2597 2516
z
" transform="scale(0.015625)"/>
     </defs>
     <use xlink:href="#DejaVuSans-16"/>
     <use xlink:href="#DejaVuSans-13" transform="translate(63.625 0)"/>
    </g>
   </g>
   <g id="text_15">
    <!-- 6 -->
    <g transform="translate(281.960209 252.080241) scale(0.1 -0.1)">
     <use xlink:href="#DejaVuSans-19"/>
    </g>
   </g>
   <g id="text_16">
    <!-- A  Evidence flow -->
    <g transform="translate(134.519196 12.118365) scale(0.12 -0.12)">
     <defs>
      <path id="DejaVuSans-24" d="M 2188 4044
L 1331 1722
L 3047 1722
L 2188 4044
z
M 1831 4666
L 2547 4666
L 4325 0
L 3669 0
L 3244 1197
L 1141 1197
L 716 0
L 50 0
L 1831 4666
z
" transform="scale(0.015625)"/>
      <path id="DejaVuSans-28" d="M 628 4666
L 3578 4666
L 3578 4134
L 1259 4134
L 1259 2753
L 3481 2753
L 3481 2222
L 1259 2222
L 1259 531
L 3634 531
L 3634 0
L 628 0
L 628 4666
z
" transform="scale(0.015625)"/>
      <path id="DejaVuSans-13b0" d="M 1831 4863
L 3431 4863
L 3431 0
L 2853 0
L 2853 4384
L 1825 4384
Q 1516 4384 1395 4259
Q 1275 4134 1275 3809
L 1275 3500
L 2222 3500
L 2222 3053
L 1275 3053
L 1275 0
L 697 0
L 697 3053
L 147 3053
L 147 3500
L 697 3500
L 697 3744
Q 697 4328 969 4595
Q 1241 4863 1831 4863
z
" transform="scale(0.015625)"/>
     </defs>
     <use xlink:href="#DejaVuSans-24"/>
     <use xlink:href="#DejaVuSans-3" transform="translate(68.40625 0)"/>
     <use xlink:href="#DejaVuSans-3" transform="translate(100.1875 0)"/>
     <use xlink:href="#DejaVuSans-28" transform="translate(131.96875 0)"/>
     <use xlink:href="#DejaVuSans-59" transform="translate(195.15625 0)"/>
     <use xlink:href="#DejaVuSans-4c" transform="translate(254.34375 0)"/>
     <use xlink:href="#DejaVuSans-47" transform="translate(282.125 0)"/>
     <use xlink:href="#DejaVuSans-48" transform="translate(345.609375 0)"/>
     <use xlink:href="#DejaVuSans-51" transform="translate(407.140625 0)"/>
     <use xlink:href="#DejaVuSans-46" transform="translate(470.515625 0)"/>
     <use xlink:href="#DejaVuSans-48" transform="translate(525.5 0)"/>
     <use xlink:href="#DejaVuSans-3" transform="translate(587.03125 0)"/>
     <use xlink:href="#DejaVuSans-13b0" transform="translate(618.8125 0)"/>
     <use xlink:href="#DejaVuSans-52" transform="translate(681.796875 0)"/>
     <use xlink:href="#DejaVuSans-5a" transform="translate(742.984375 0)"/>
    </g>
   </g>
  </g>
  <g id="axes_2">
   <g id="patch_9">
    <path d="M 365.127528 271.989507
L 646.960753 271.989507
L 646.960753 18.118365
L 365.127528 18.118365
z
" style="fill: #ffffff"/>
   </g>
   <g id="patch_10">
    <path d="M 377.938129 271.989507
L 451.141564 271.989507
L 451.141564 151.098487
L 377.938129 151.098487
z
" clip-path="url(#pf33935b350)" style="fill: #4c78a8"/>
   </g>
   <g id="patch_11">
    <path d="M 469.442423 271.989507
L 542.645858 271.989507
L 542.645858 181.321242
L 469.442423 181.321242
z
" clip-path="url(#pf33935b350)" style="fill: #e0b84f"/>
   </g>
   <g id="patch_12">
    <path d="M 560.946717 271.989507
L 634.150152 271.989507
L 634.150152 30.207467
L 560.946717 30.207467
z
" clip-path="url(#pf33935b350)" style="fill: #2a8f3a"/>
   </g>
   <g id="matplotlib.axis_3">
    <g id="xtick_5">
     <g id="line2d_11">
      <g>
       <use xlink:href="#m513fe61911" x="414.539847" y="271.989507" style="stroke: #000000; stroke-width: 0.8"/>
      </g>
     </g>
     <g id="text_17">
      <!-- Affinity -->
      <g transform="translate(396.807815 287.588922) scale(0.1 -0.1)">
       <defs>
        <path id="DejaVuSans-13b1" d="M 2375 4863
L 2375 4384
L 1825 4384
Q 1516 4384 1394 4259
Q 1275 4134 1275 3809
L 1275 3500
L 2853 3500
L 2853 3744
Q 2853 4328 3125 4594
Q 3213 4681 3334 4741
Q 3578 4863 3988 4863
L 4531 4863
L 4531 4384
L 3981 4384
Q 3672 4384 3551 4259
Q 3431 4134 3431 3809
L 3431 3500
L 5588 3500
L 5588 0
L 5009 0
L 5009 3053
L 3431 3053
L 3431 0
L 2853 0
L 2853 3053
L 1275 3053
L 1275 0
L 697 0
L 697 3053
L 147 3053
L 147 3500
L 697 3500
L 697 3744
Q 697 4328 969 4595
Q 1241 4863 1831 4863
L 2375 4863
z
M 5009 4856
L 5588 4856
L 5588 4128
L 5009 4128
L 5009 4856
z
" transform="scale(0.015625)"/>
       </defs>
       <use xlink:href="#DejaVuSans-24"/>
       <use xlink:href="#DejaVuSans-13b1" transform="translate(68.40625 0)"/>
       <use xlink:href="#DejaVuSans-51" transform="translate(165.09375 0)"/>
       <use xlink:href="#DejaVuSans-4c" transform="translate(228.46875 0)"/>
       <use xlink:href="#DejaVuSans-57" transform="translate(256.25 0)"/>
       <use xlink:href="#DejaVuSans-5c" transform="translate(295.453125 0)"/>
      </g>
      <!-- singles -->
      <g transform="translate(397.132815 299.591656) scale(0.1 -0.1)">
       <defs>
        <path id="DejaVuSans-4a" d="M 2906 1791
Q 2906 2416 2648 2759
Q 2391 3103 1925 3103
Q 1463 3103 1205 2759
Q 947 2416 947 1791
Q 947 1169 1205 825
Q 1463 481 1925 481
Q 2391 481 2648 825
Q 2906 1169 2906 1791
z
M 3481 434
Q 3481 -459 3084 -895
Q 2688 -1331 1869 -1331
Q 1566 -1331 1297 -1286
Q 1028 -1241 775 -1147
L 775 -588
Q 1028 -725 1275 -790
Q 1522 -856 1778 -856
Q 2344 -856 2625 -561
Q 2906 -266 2906 331
L 2906 616
Q 2728 306 2450 153
Q 2172 0 1784 0
Q 1141 0 747 490
Q 353 981 353 1791
Q 353 2603 747 3093
Q 1141 3584 1784 3584
Q 2172 3584 2450 3431
Q 2728 3278 2906 2969
L 2906 3500
L 3481 3500
L 3481 434
z
" transform="scale(0.015625)"/>
       </defs>
       <use xlink:href="#DejaVuSans-56"/>
       <use xlink:href="#DejaVuSans-4c" transform="translate(52.09375 0)"/>
       <use xlink:href="#DejaVuSans-51" transform="translate(79.875 0)"/>
       <use xlink:href="#DejaVuSans-4a" transform="translate(143.25 0)"/>
       <use xlink:href="#DejaVuSans-4f" transform="translate(206.734375 0)"/>
       <use xlink:href="#DejaVuSans-48" transform="translate(234.515625 0)"/>
       <use xlink:href="#DejaVuSans-56" transform="translate(296.046875 0)"/>
      </g>
     </g>
    </g>
    <g id="xtick_6">
     <g id="line2d_12">
      <g>
       <use xlink:href="#m513fe61911" x="506.044141" y="271.989507" style="stroke: #000000; stroke-width: 0.8"/>
      </g>
     </g>
     <g id="text_18">
      <!-- Property -->
      <g transform="translate(484.886328 287.58814) scale(0.1 -0.1)">
       <use xlink:href="#DejaVuSans-33"/>
       <use xlink:href="#DejaVuSans-55" transform="translate(58.546875 0)"/>
       <use xlink:href="#DejaVuSans-52" transform="translate(97.453125 0)"/>
       <use xlink:href="#DejaVuSans-53" transform="translate(158.640625 0)"/>
       <use xlink:href="#DejaVuSans-48" transform="translate(222.125 0)"/>
       <use xlink:href="#DejaVuSans-55" transform="translate(283.65625 0)"/>
       <use xlink:href="#DejaVuSans-57" transform="translate(324.765625 0)"/>
       <use xlink:href="#DejaVuSans-5c" transform="translate(363.96875 0)"/>
      </g>
      <!-- singles -->
      <g transform="translate(488.637109 299.590875) scale(0.1 -0.1)">
       <use xlink:href="#DejaVuSans-56"/>
       <use xlink:href="#DejaVuSans-4c" transform="translate(52.09375 0)"/>
       <use xlink:href="#DejaVuSans-51" transform="translate(79.875 0)"/>
       <use xlink:href="#DejaVuSans-4a" transform="translate(143.25 0)"/>
       <use xlink:href="#DejaVuSans-4f" transform="translate(206.734375 0)"/>
       <use xlink:href="#DejaVuSans-48" transform="translate(234.515625 0)"/>
       <use xlink:href="#DejaVuSans-56" transform="translate(296.046875 0)"/>
      </g>
     </g>
    </g>
    <g id="xtick_7">
     <g id="line2d_13">
      <g>
       <use xlink:href="#m513fe61911" x="597.548435" y="271.989507" style="stroke: #000000; stroke-width: 0.8"/>
      </g>
     </g>
     <g id="text_19">
      <!-- Balanced -->
      <g transform="translate(574.432028 287.588922) scale(0.1 -0.1)">
       <defs>
        <path id="DejaVuSans-25" d="M 1259 2228
L 1259 519
L 2272 519
Q 2781 519 3026 730
Q 3272 941 3272 1375
Q 3272 1813 3026 2020
Q 2781 2228 2272 2228
L 1259 2228
z
M 1259 4147
L 1259 2741
L 2194 2741
Q 2656 2741 2882 2914
Q 3109 3088 3109 3444
Q 3109 3797 2882 3972
Q 2656 4147 2194 4147
L 1259 4147
z
M 628 4666
L 2241 4666
Q 2963 4666 3353 4366
Q 3744 4066 3744 3513
Q 3744 3084 3544 2831
Q 3344 2578 2956 2516
Q 3422 2416 3680 2098
Q 3938 1781 3938 1306
Q 3938 681 3513 340
Q 3088 0 2303 0
L 628 0
L 628 4666
z
" transform="scale(0.015625)"/>
       </defs>
       <use xlink:href="#DejaVuSans-25"/>
       <use xlink:href="#DejaVuSans-44" transform="translate(68.609375 0)"/>
       <use xlink:href="#DejaVuSans-4f" transform="translate(129.890625 0)"/>
       <use xlink:href="#DejaVuSans-44" transform="translate(157.671875 0)"/>
       <use xlink:href="#DejaVuSans-51" transform="translate(218.953125 0)"/>
       <use xlink:href="#DejaVuSans-46" transform="translate(282.328125 0)"/>
       <use xlink:href="#DejaVuSans-48" transform="translate(337.3125 0)"/>
       <use xlink:href="#DejaVuSans-47" transform="translate(398.84375 0)"/>
      </g>
      <!-- doubles -->
      <g transform="translate(577.90156 299.591656) scale(0.1 -0.1)">
       <defs>
        <path id="DejaVuSans-45" d="M 3116 1747
Q 3116 2381 2855 2742
Q 2594 3103 2138 3103
Q 1681 3103 1420 2742
Q 1159 2381 1159 1747
Q 1159 1113 1420 752
Q 1681 391 2138 391
Q 2594 391 2855 752
Q 3116 1113 3116 1747
z
M 1159 2969
Q 1341 3281 1617 3432
Q 1894 3584 2278 3584
Q 2916 3584 3314 3078
Q 3713 2572 3713 1747
Q 3713 922 3314 415
Q 2916 -91 2278 -91
Q 1894 -91 1617 61
Q 1341 213 1159 525
L 1159 0
L 581 0
L 581 4863
L 1159 4863
L 1159 2969
z
" transform="scale(0.015625)"/>
       </defs>
       <use xlink:href="#DejaVuSans-47"/>
       <use xlink:href="#DejaVuSans-52" transform="translate(63.484375 0)"/>
       <use xlink:href="#DejaVuSans-58" transform="translate(124.671875 0)"/>
       <use xlink:href="#DejaVuSans-45" transform="translate(188.046875 0)"/>
       <use xlink:href="#DejaVuSans-4f" transform="translate(251.53125 0)"/>
       <use xlink:href="#DejaVuSans-48" transform="translate(279.3125 0)"/>
       <use xlink:href="#DejaVuSans-56" transform="translate(340.84375 0)"/>
      </g>
     </g>
    </g>
   </g>
   <g id="matplotlib.axis_4">
    <g id="ytick_7">
     <g id="line2d_14">
      <g>
       <use xlink:href="#mf9817cfe49" x="365.127528" y="271.989507" style="stroke: #000000; stroke-width: 0.8"/>
      </g>
     </g>
     <g id="text_20">
      <!-- 0 -->
      <g transform="translate(351.765028 275.788336) scale(0.1 -0.1)">
       <use xlink:href="#DejaVuSans-13"/>
      </g>
     </g>
    </g>
    <g id="ytick_8">
     <g id="line2d_15">
      <g>
       <use xlink:href="#mf9817cfe49" x="365.127528" y="241.766752" style="stroke: #000000; stroke-width: 0.8"/>
      </g>
     </g>
     <g id="text_21">
      <!-- 2 -->
      <g transform="translate(351.765028 245.565581) scale(0.1 -0.1)">
       <use xlink:href="#DejaVuSans-15"/>
      </g>
     </g>
    </g>
    <g id="ytick_9">
     <g id="line2d_16">
      <g>
       <use xlink:href="#mf9817cfe49" x="365.127528" y="211.543997" style="stroke: #000000; stroke-width: 0.8"/>
      </g>
     </g>
     <g id="text_22">
      <!-- 4 -->
      <g transform="translate(351.765028 215.342825) scale(0.1 -0.1)">
       <use xlink:href="#DejaVuSans-17"/>
      </g>
     </g>
    </g>
    <g id="ytick_10">
     <g id="line2d_17">
      <g>
       <use xlink:href="#mf9817cfe49" x="365.127528" y="181.321242" style="stroke: #000000; stroke-width: 0.8"/>
      </g>
     </g>
     <g id="text_23">
      <!-- 6 -->
      <g transform="translate(351.765028 185.12007) scale(0.1 -0.1)">
       <use xlink:href="#DejaVuSans-19"/>
      </g>
     </g>
    </g>
    <g id="ytick_11">
     <g id="line2d_18">
      <g>
       <use xlink:href="#mf9817cfe49" x="365.127528" y="151.098487" style="stroke: #000000; stroke-width: 0.8"/>
      </g>
     </g>
     <g id="text_24">
      <!-- 8 -->
      <g transform="translate(351.765028 154.897315) scale(0.1 -0.1)">
       <use xlink:href="#DejaVuSans-1b"/>
      </g>
     </g>
    </g>
    <g id="ytick_12">
     <g id="line2d_19">
      <g>
       <use xlink:href="#mf9817cfe49" x="365.127528" y="120.875732" style="stroke: #000000; stroke-width: 0.8"/>
      </g>
     </g>
     <g id="text_25">
      <!-- 10 -->
      <g transform="translate(345.402528 124.67456) scale(0.1 -0.1)">
       <use xlink:href="#DejaVuSans-14"/>
       <use xlink:href="#DejaVuSans-13" transform="translate(63.625 0)"/>
      </g>
     </g>
    </g>
    <g id="ytick_13">
     <g id="line2d_20">
      <g>
       <use xlink:href="#mf9817cfe49" x="365.127528" y="90.652977" style="stroke: #000000; stroke-width: 0.8"/>
      </g>
     </g>
     <g id="text_26">
      <!-- 12 -->
      <g transform="translate(345.402528 94.451805) scale(0.1 -0.1)">
       <use xlink:href="#DejaVuSans-14"/>
       <use xlink:href="#DejaVuSans-15" transform="translate(63.625 0)"/>
      </g>
     </g>
    </g>
    <g id="ytick_14">
     <g id="line2d_21">
      <g>
       <use xlink:href="#mf9817cfe49" x="365.127528" y="60.430222" style="stroke: #000000; stroke-width: 0.8"/>
      </g>
     </g>
     <g id="text_27">
      <!-- 14 -->
      <g transform="translate(345.402528 64.22905) scale(0.1 -0.1)">
       <use xlink:href="#DejaVuSans-14"/>
       <use xlink:href="#DejaVuSans-17" transform="translate(63.625 0)"/>
      </g>
     </g>
    </g>
    <g id="ytick_15">
     <g id="line2d_22">
      <g>
       <use xlink:href="#mf9817cfe49" x="365.127528" y="30.207467" style="stroke: #000000; stroke-width: 0.8"/>
      </g>
     </g>
     <g id="text_28">
      <!-- 16 -->
      <g transform="translate(345.402528 34.006295) scale(0.1 -0.1)">
       <use xlink:href="#DejaVuSans-14"/>
       <use xlink:href="#DejaVuSans-19" transform="translate(63.625 0)"/>
      </g>
     </g>
    </g>
    <g id="text_29">
     <!-- Preliminary sequences -->
     <g transform="translate(339.000184 201.577374) rotate(-90) scale(0.1 -0.1)">
      <defs>
       <path id="DejaVuSans-54" d="M 947 1747
Q 947 1113 1208 752
Q 1469 391 1925 391
Q 2381 391 2643 752
Q 2906 1113 2906 1747
Q 2906 2381 2643 2742
Q 2381 3103 1925 3103
Q 1469 3103 1208 2742
Q 947 2381 947 1747
z
M 2906 525
Q 2725 213 2448 61
Q 2172 -91 1784 -91
Q 1150 -91 751 415
Q 353 922 353 1747
Q 353 2572 751 3078
Q 1150 3584 1784 3584
Q 2172 3584 2448 3432
Q 2725 3281 2906 2969
L 2906 3500
L 3481 3500
L 3481 -1331
L 2906 -1331
L 2906 525
z
" transform="scale(0.015625)"/>
      </defs>
      <use xlink:href="#DejaVuSans-33"/>
      <use xlink:href="#DejaVuSans-55" transform="translate(58.546875 0)"/>
      <use xlink:href="#DejaVuSans-48" transform="translate(97.453125 0)"/>
      <use xlink:href="#DejaVuSans-4f" transform="translate(158.984375 0)"/>
      <use xlink:href="#DejaVuSans-4c" transform="translate(186.765625 0)"/>
      <use xlink:href="#DejaVuSans-50" transform="translate(214.546875 0)"/>
      <use xlink:href="#DejaVuSans-4c" transform="translate(311.953125 0)"/>
      <use xlink:href="#DejaVuSans-51" transform="translate(339.734375 0)"/>
      <use xlink:href="#DejaVuSans-44" transform="translate(403.109375 0)"/>
      <use xlink:href="#DejaVuSans-55" transform="translate(464.390625 0)"/>
      <use xlink:href="#DejaVuSans-5c" transform="translate(505.5 0)"/>
      <use xlink:href="#DejaVuSans-3" transform="translate(564.6875 0)"/>
      <use xlink:href="#DejaVuSans-56" transform="translate(596.46875 0)"/>
      <use xlink:href="#DejaVuSans-48" transform="translate(648.5625 0)"/>
      <use xlink:href="#DejaVuSans-54" transform="translate(710.09375 0)"/>
      <use xlink:href="#DejaVuSans-58" transform="translate(773.578125 0)"/>
      <use xlink:href="#DejaVuSans-48" transform="translate(836.953125 0)"/>
      <use xlink:href="#DejaVuSans-51" transform="translate(898.484375 0)"/>
      <use xlink:href="#DejaVuSans-46" transform="translate(961.859375 0)"/>
      <use xlink:href="#DejaVuSans-48" transform="translate(1016.84375 0)"/>
      <use xlink:href="#DejaVuSans-56" transform="translate(1078.375 0)"/>
     </g>
    </g>
   </g>
   <g id="patch_13">
    <path d="M 365.127528 271.989507
L 365.127528 18.118365
" style="fill: none; stroke: #000000; stroke-width: 0.8; stroke-linejoin: miter; stroke-linecap: square"/>
   </g>
   <g id="patch_14">
    <path d="M 365.127528 271.989507
L 646.960753 271.989507
" style="fill: none; stroke: #000000; stroke-width: 0.8; stroke-linejoin: miter; stroke-linecap: square"/>
   </g>
   <g id="text_30">
    <!-- 8 -->
    <g transform="translate(411.358597 145.696143) scale(0.1 -0.1)">
     <use xlink:href="#DejaVuSans-1b"/>
    </g>
   </g>
   <g id="text_31">
    <!-- 6 -->
    <g transform="translate(502.862891 175.918899) scale(0.1 -0.1)">
     <use xlink:href="#DejaVuSans-19"/>
    </g>
   </g>
   <g id="text_32">
    <!-- 16 -->
    <g transform="translate(591.185935 24.805123) scale(0.1 -0.1)">
     <use xlink:href="#DejaVuSans-14"/>
     <use xlink:href="#DejaVuSans-19" transform="translate(63.625 0)"/>
    </g>
   </g>
   <g id="text_33">
    <!-- B  Thirty-sequence composition -->
    <g transform="translate(411.148516 12.118365) scale(0.12 -0.12)">
     <defs>
      <path id="DejaVuSans-37" d="M -19 4666
L 3928 4666
L 3928 4134
L 2272 4134
L 2272 0
L 1638 0
L 1638 4134
L -19 4134
L -19 4666
z
" transform="scale(0.015625)"/>
      <path id="DejaVuSans-4b" d="M 3513 2113
L 3513 0
L 2938 0
L 2938 2094
Q 2938 2591 2744 2837
Q 2550 3084 2163 3084
Q 1697 3084 1428 2787
Q 1159 2491 1159 1978
L 1159 0
L 581 0
L 581 4863
L 1159 4863
L 1159 2956
Q 1366 3272 1645 3428
Q 1925 3584 2291 3584
Q 2894 3584 3203 3211
Q 3513 2838 3513 2113
z
" transform="scale(0.015625)"/>
      <path id="DejaVuSans-10" d="M 313 2009
L 1997 2009
L 1997 1497
L 313 1497
L 313 2009
z
" transform="scale(0.015625)"/>
     </defs>
     <use xlink:href="#DejaVuSans-25"/>
     <use xlink:href="#DejaVuSans-3" transform="translate(68.609375 0)"/>
     <use xlink:href="#DejaVuSans-3" transform="translate(100.390625 0)"/>
     <use xlink:href="#DejaVuSans-37" transform="translate(132.171875 0)"/>
     <use xlink:href="#DejaVuSans-4b" transform="translate(193.25 0)"/>
     <use xlink:href="#DejaVuSans-4c" transform="translate(256.625 0)"/>
     <use xlink:href="#DejaVuSans-55" transform="translate(284.40625 0)"/>
     <use xlink:href="#DejaVuSans-57" transform="translate(325.515625 0)"/>
     <use xlink:href="#DejaVuSans-5c" transform="translate(364.71875 0)"/>
     <use xlink:href="#DejaVuSans-10" transform="translate(422.15625 0)"/>
     <use xlink:href="#DejaVuSans-56" transform="translate(458.234375 0)"/>
     <use xlink:href="#DejaVuSans-48" transform="translate(510.328125 0)"/>
     <use xlink:href="#DejaVuSans-54" transform="translate(571.859375 0)"/>
     <use xlink:href="#DejaVuSans-58" transform="translate(635.34375 0)"/>
     <use xlink:href="#DejaVuSans-48" transform="translate(698.71875 0)"/>
     <use xlink:href="#DejaVuSans-51" transform="translate(760.25 0)"/>
     <use xlink:href="#DejaVuSans-46" transform="translate(823.625 0)"/>
     <use xlink:href="#DejaVuSans-48" transform="translate(878.609375 0)"/>
     <use xlink:href="#DejaVuSans-3" transform="translate(940.140625 0)"/>
     <use xlink:href="#DejaVuSans-46" transform="translate(971.921875 0)"/>
     <use xlink:href="#DejaVuSans-52" transform="translate(1026.90625 0)"/>
     <use xlink:href="#DejaVuSans-50" transform="translate(1088.09375 0)"/>
     <use xlink:href="#DejaVuSans-53" transform="translate(1185.5 0)"/>
     <use xlink:href="#DejaVuSans-52" transform="translate(1248.984375 0)"/>
     <use xlink:href="#DejaVuSans-56" transform="translate(1310.171875 0)"/>
     <use xlink:href="#DejaVuSans-4c" transform="translate(1362.265625 0)"/>
     <use xlink:href="#DejaVuSans-57" transform="translate(1390.046875 0)"/>
     <use xlink:href="#DejaVuSans-4c" transform="translate(1429.25 0)"/>
     <use xlink:href="#DejaVuSans-52" transform="translate(1457.03125 0)"/>
     <use xlink:href="#DejaVuSans-51" transform="translate(1518.21875 0)"/>
    </g>
   </g>
  </g>
  <g id="axes_3">
   <g id="patch_15">
    <path d="M 687.166535 271.989507
L 968.99976 271.989507
L 968.99976 18.118365
L 687.166535 18.118365
z
" style="fill: #ffffff"/>
   </g>
   <g id="patch_16">
    <path d="M 699.977136 271.989507
L 813.849146 271.989507
L 813.849146 30.207467
L 699.977136 30.207467
z
" clip-path="url(#pfc2a6f2dc2)" style="fill: #2a8f3a"/>
   </g>
   <g id="patch_17">
    <path d="M 842.317149 271.989507
L 956.189159 271.989507
L 956.189159 216.193652
L 842.317149 216.193652
z
" clip-path="url(#pfc2a6f2dc2)" style="fill: #d55e00"/>
   </g>
   <g id="matplotlib.axis_5">
    <g id="xtick_8">
     <g id="line2d_23">
      <g>
       <use xlink:href="#m513fe61911" x="756.913141" y="271.989507" style="stroke: #000000; stroke-width: 0.8"/>
      </g>
     </g>
     <g id="text_34">
      <!-- Unchanged -->
      <g transform="translate(728.509235 286.587945) scale(0.1 -0.1)">
       <defs>
        <path id="DejaVuSans-38" d="M 556 4666
L 1191 4666
L 1191 1831
Q 1191 1081 1462 751
Q 1734 422 2344 422
Q 2950 422 3222 751
Q 3494 1081 3494 1831
L 3494 4666
L 4128 4666
L 4128 1753
Q 4128 841 3676 375
Q 3225 -91 2344 -91
Q 1459 -91 1007 375
Q 556 841 556 1753
L 556 4666
z
" transform="scale(0.015625)"/>
       </defs>
       <use xlink:href="#DejaVuSans-38"/>
       <use xlink:href="#DejaVuSans-51" transform="translate(73.1875 0)"/>
       <use xlink:href="#DejaVuSans-46" transform="translate(136.5625 0)"/>
       <use xlink:href="#DejaVuSans-4b" transform="translate(191.546875 0)"/>
       <use xlink:href="#DejaVuSans-44" transform="translate(254.921875 0)"/>
       <use xlink:href="#DejaVuSans-51" transform="translate(316.203125 0)"/>
       <use xlink:href="#DejaVuSans-4a" transform="translate(379.578125 0)"/>
       <use xlink:href="#DejaVuSans-48" transform="translate(443.0625 0)"/>
       <use xlink:href="#DejaVuSans-47" transform="translate(504.59375 0)"/>
      </g>
     </g>
    </g>
    <g id="xtick_9">
     <g id="line2d_24">
      <g>
       <use xlink:href="#m513fe61911" x="899.253154" y="271.989507" style="stroke: #000000; stroke-width: 0.8"/>
      </g>
     </g>
     <g id="text_35">
      <!-- Changed -->
      <g transform="translate(876.935185 286.587945) scale(0.1 -0.1)">
       <use xlink:href="#DejaVuSans-26"/>
       <use xlink:href="#DejaVuSans-4b" transform="translate(69.828125 0)"/>
       <use xlink:href="#DejaVuSans-44" transform="translate(133.203125 0)"/>
       <use xlink:href="#DejaVuSans-51" transform="translate(194.484375 0)"/>
       <use xlink:href="#DejaVuSans-4a" transform="translate(257.859375 0)"/>
       <use xlink:href="#DejaVuSans-48" transform="translate(321.34375 0)"/>
       <use xlink:href="#DejaVuSans-47" transform="translate(382.875 0)"/>
      </g>
     </g>
    </g>
   </g>
   <g id="matplotlib.axis_6">
    <g id="ytick_16">
     <g id="line2d_25">
      <g>
       <use xlink:href="#mf9817cfe49" x="687.166535" y="271.989507" style="stroke: #000000; stroke-width: 0.8"/>
      </g>
     </g>
     <g id="text_36">
      <!-- 0 -->
      <g transform="translate(673.804035 275.788336) scale(0.1 -0.1)">
       <use xlink:href="#DejaVuSans-13"/>
      </g>
     </g>
    </g>
    <g id="ytick_17">
     <g id="line2d_26">
      <g>
       <use xlink:href="#mf9817cfe49" x="687.166535" y="234.79227" style="stroke: #000000; stroke-width: 0.8"/>
      </g>
     </g>
     <g id="text_37">
      <!-- 2 -->
      <g transform="translate(673.804035 238.591099) scale(0.1 -0.1)">
       <use xlink:href="#DejaVuSans-15"/>
      </g>
     </g>
    </g>
    <g id="ytick_18">
     <g id="line2d_27">
      <g>
       <use xlink:href="#mf9817cfe49" x="687.166535" y="197.595033" style="stroke: #000000; stroke-width: 0.8"/>
      </g>
     </g>
     <g id="text_38">
      <!-- 4 -->
      <g transform="translate(673.804035 201.393862) scale(0.1 -0.1)">
       <use xlink:href="#DejaVuSans-17"/>
      </g>
     </g>
    </g>
    <g id="ytick_19">
     <g id="line2d_28">
      <g>
       <use xlink:href="#mf9817cfe49" x="687.166535" y="160.397796" style="stroke: #000000; stroke-width: 0.8"/>
      </g>
     </g>
     <g id="text_39">
      <!-- 6 -->
      <g transform="translate(673.804035 164.196625) scale(0.1 -0.1)">
       <use xlink:href="#DejaVuSans-19"/>
      </g>
     </g>
    </g>
    <g id="ytick_20">
     <g id="line2d_29">
      <g>
       <use xlink:href="#mf9817cfe49" x="687.166535" y="123.200559" style="stroke: #000000; stroke-width: 0.8"/>
      </g>
     </g>
     <g id="text_40">
      <!-- 8 -->
      <g transform="translate(673.804035 126.999388) scale(0.1 -0.1)">
       <use xlink:href="#DejaVuSans-1b"/>
      </g>
     </g>
    </g>
    <g id="ytick_21">
     <g id="line2d_30">
      <g>
       <use xlink:href="#mf9817cfe49" x="687.166535" y="86.003323" style="stroke: #000000; stroke-width: 0.8"/>
      </g>
     </g>
     <g id="text_41">
      <!-- 10 -->
      <g transform="translate(667.441535 89.802151) scale(0.1 -0.1)">
       <use xlink:href="#DejaVuSans-14"/>
       <use xlink:href="#DejaVuSans-13" transform="translate(63.625 0)"/>
      </g>
     </g>
    </g>
    <g id="ytick_22">
     <g id="line2d_31">
      <g>
       <use xlink:href="#mf9817cfe49" x="687.166535" y="48.806086" style="stroke: #000000; stroke-width: 0.8"/>
      </g>
     </g>
     <g id="text_42">
      <!-- 12 -->
      <g transform="translate(667.441535 52.604914) scale(0.1 -0.1)">
       <use xlink:href="#DejaVuSans-14"/>
       <use xlink:href="#DejaVuSans-15" transform="translate(63.625 0)"/>
      </g>
     </g>
    </g>
    <g id="text_43">
     <!-- Selected balanced doubles -->
     <g transform="translate(661.039191 212.415655) rotate(-90) scale(0.1 -0.1)">
      <defs>
       <path id="DejaVuSans-36" d="M 3425 4513
L 3425 3897
Q 3066 4069 2747 4153
Q 2428 4238 2131 4238
Q 1616 4238 1336 4038
Q 1056 3838 1056 3469
Q 1056 3159 1242 3001
Q 1428 2844 1947 2747
L 2328 2669
Q 3034 2534 3370 2195
Q 3706 1856 3706 1288
Q 3706 609 3251 259
Q 2797 -91 1919 -91
Q 1588 -91 1214 -16
Q 841 59 441 206
L 441 856
Q 825 641 1194 531
Q 1563 422 1919 422
Q 2459 422 2753 634
Q 3047 847 3047 1241
Q 3047 1584 2836 1778
Q 2625 1972 2144 2069
L 1759 2144
Q 1053 2284 737 2584
Q 422 2884 422 3419
Q 422 4038 858 4394
Q 1294 4750 2059 4750
Q 2388 4750 2728 4690
Q 3069 4631 3425 4513
z
" transform="scale(0.015625)"/>
      </defs>
      <use xlink:href="#DejaVuSans-36"/>
      <use xlink:href="#DejaVuSans-48" transform="translate(63.484375 0)"/>
      <use xlink:href="#DejaVuSans-4f" transform="translate(125.015625 0)"/>
      <use xlink:href="#DejaVuSans-48" transform="translate(152.796875 0)"/>
      <use xlink:href="#DejaVuSans-46" transform="translate(214.328125 0)"/>
      <use xlink:href="#DejaVuSans-57" transform="translate(269.3125 0)"/>
      <use xlink:href="#DejaVuSans-48" transform="translate(308.515625 0)"/>
      <use xlink:href="#DejaVuSans-47" transform="translate(370.046875 0)"/>
      <use xlink:href="#DejaVuSans-3" transform="translate(433.53125 0)"/>
      <use xlink:href="#DejaVuSans-45" transform="translate(465.3125 0)"/>
      <use xlink:href="#DejaVuSans-44" transform="translate(528.796875 0)"/>
      <use xlink:href="#DejaVuSans-4f" transform="translate(590.078125 0)"/>
      <use xlink:href="#DejaVuSans-44" transform="translate(617.859375 0)"/>
      <use xlink:href="#DejaVuSans-51" transform="translate(679.140625 0)"/>
      <use xlink:href="#DejaVuSans-46" transform="translate(742.515625 0)"/>
      <use xlink:href="#DejaVuSans-48" transform="translate(797.5 0)"/>
      <use xlink:href="#DejaVuSans-47" transform="translate(859.03125 0)"/>
      <use xlink:href="#DejaVuSans-3" transform="translate(922.515625 0)"/>
      <use xlink:href="#DejaVuSans-47" transform="translate(954.296875 0)"/>
      <use xlink:href="#DejaVuSans-52" transform="translate(1017.78125 0)"/>
      <use xlink:href="#DejaVuSans-58" transform="translate(1078.96875 0)"/>
      <use xlink:href="#DejaVuSans-45" transform="translate(1142.34375 0)"/>
      <use xlink:href="#DejaVuSans-4f" transform="translate(1205.828125 0)"/>
      <use xlink:href="#DejaVuSans-48" transform="translate(1233.609375 0)"/>
      <use xlink:href="#DejaVuSans-56" transform="translate(1295.140625 0)"/>
     </g>
    </g>
   </g>
   <g id="patch_18">
    <path d="M 687.166535 271.989507
L 687.166535 18.118365
" style="fill: none; stroke: #000000; stroke-width: 0.8; stroke-linejoin: miter; stroke-linecap: square"/>
   </g>
   <g id="patch_19">
    <path d="M 687.166535 271.989507
L 968.99976 271.989507
" style="fill: none; stroke: #000000; stroke-width: 0.8; stroke-linejoin: miter; stroke-linecap: square"/>
   </g>
   <g id="text_44">
    <!-- 13 -->
    <g transform="translate(750.550641 24.805123) scale(0.1 -0.1)">
     <use xlink:href="#DejaVuSans-14"/>
     <use xlink:href="#DejaVuSans-16" transform="translate(63.625 0)"/>
    </g>
   </g>
   <g id="text_45">
    <!-- 3 -->
    <g transform="translate(896.071904 210.791308) scale(0.1 -0.1)">
     <use xlink:href="#DejaVuSans-16"/>
    </g>
   </g>
   <g id="text_46">
    <!-- C  Paired-WT contact audit -->
    <g transform="translate(748.45846 12.118365) scale(0.12 -0.12)">
     <defs>
      <path id="DejaVuSans-3a" d="M 213 4666
L 850 4666
L 1831 722
L 2809 4666
L 3519 4666
L 4500 722
L 5478 4666
L 6119 4666
L 4947 0
L 4153 0
L 3169 4050
L 2175 0
L 1381 0
L 213 4666
z
" transform="scale(0.015625)"/>
     </defs>
     <use xlink:href="#DejaVuSans-26"/>
     <use xlink:href="#DejaVuSans-3" transform="translate(69.828125 0)"/>
     <use xlink:href="#DejaVuSans-3" transform="translate(101.609375 0)"/>
     <use xlink:href="#DejaVuSans-33" transform="translate(133.390625 0)"/>
     <use xlink:href="#DejaVuSans-44" transform="translate(189.203125 0)"/>
     <use xlink:href="#DejaVuSans-4c" transform="translate(250.484375 0)"/>
     <use xlink:href="#DejaVuSans-55" transform="translate(278.265625 0)"/>
     <use xlink:href="#DejaVuSans-48" transform="translate(317.171875 0)"/>
     <use xlink:href="#DejaVuSans-47" transform="translate(378.703125 0)"/>
     <use xlink:href="#DejaVuSans-10" transform="translate(442.1875 0)"/>
     <use xlink:href="#DejaVuSans-3a" transform="translate(474.21875 0)"/>
     <use xlink:href="#DejaVuSans-37" transform="translate(573.09375 0)"/>
     <use xlink:href="#DejaVuSans-3" transform="translate(634.171875 0)"/>
     <use xlink:href="#DejaVuSans-46" transform="translate(665.953125 0)"/>
     <use xlink:href="#DejaVuSans-52" transform="translate(720.9375 0)"/>
     <use xlink:href="#DejaVuSans-51" transform="translate(782.125 0)"/>
     <use xlink:href="#DejaVuSans-57" transform="translate(845.5 0)"/>
     <use xlink:href="#DejaVuSans-44" transform="translate(884.703125 0)"/>
     <use xlink:href="#DejaVuSans-46" transform="translate(945.984375 0)"/>
     <use xlink:href="#DejaVuSans-57" transform="translate(1000.96875 0)"/>
     <use xlink:href="#DejaVuSans-3" transform="translate(1040.171875 0)"/>
     <use xlink:href="#DejaVuSans-44" transform="translate(1071.953125 0)"/>
     <use xlink:href="#DejaVuSans-58" transform="translate(1133.234375 0)"/>
     <use xlink:href="#DejaVuSans-47" transform="translate(1196.609375 0)"/>
     <use xlink:href="#DejaVuSans-4c" transform="translate(1260.09375 0)"/>
     <use xlink:href="#DejaVuSans-57" transform="translate(1287.875 0)"/>
    </g>
   </g>
  </g>
  <g id="text_47">
   <!-- Computational preselection only. All 14 released singles are retained for component interpretation; 16 doubles use within-protocol Pareto and diversity, not a weighted score. -->
   <g transform="translate(9.72 321.408) scale(0.08 -0.08)">
    <defs>
     <path id="DejaVuSans-11" d="M 684 794
L 1344 794
L 1344 0
L 684 0
L 684 794
z
" transform="scale(0.015625)"/>
     <path id="DejaVuSans-49" d="M 2375 4863
L 2375 4384
L 1825 4384
Q 1516 4384 1395 4259
Q 1275 4134 1275 3809
L 1275 3500
L 2222 3500
L 2222 3053
L 1275 3053
L 1275 0
L 697 0
L 697 3053
L 147 3053
L 147 3500
L 697 3500
L 697 3744
Q 697 4328 969 4595
Q 1241 4863 1831 4863
L 2375 4863
z
" transform="scale(0.015625)"/>
     <path id="DejaVuSans-1e" d="M 750 3309
L 1409 3309
L 1409 2516
L 750 2516
L 750 3309
z
M 750 794
L 1409 794
L 1409 256
L 897 -744
L 494 -744
L 750 256
L 750 794
z
" transform="scale(0.015625)"/>
     <path id="DejaVuSans-f" d="M 750 794
L 1409 794
L 1409 256
L 897 -744
L 494 -744
L 750 256
L 750 794
z
" transform="scale(0.015625)"/>
    </defs>
    <use xlink:href="#DejaVuSans-26"/>
    <use xlink:href="#DejaVuSans-52" transform="translate(69.828125 0)"/>
    <use xlink:href="#DejaVuSans-50" transform="translate(131.015625 0)"/>
    <use xlink:href="#DejaVuSans-53" transform="translate(228.421875 0)"/>
    <use xlink:href="#DejaVuSans-58" transform="translate(291.90625 0)"/>
    <use xlink:href="#DejaVuSans-57" transform="translate(355.28125 0)"/>
    <use xlink:href="#DejaVuSans-44" transform="translate(394.484375 0)"/>
    <use xlink:href="#DejaVuSans-57" transform="translate(455.765625 0)"/>
    <use xlink:href="#DejaVuSans-4c" transform="translate(494.96875 0)"/>
    <use xlink:href="#DejaVuSans-52" transform="translate(522.75 0)"/>
    <use xlink:href="#DejaVuSans-51" transform="translate(583.9375 0)"/>
    <use xlink:href="#DejaVuSans-44" transform="translate(647.3125 0)"/>
    <use xlink:href="#DejaVuSans-4f" transform="translate(708.59375 0)"/>
    <use xlink:href="#DejaVuSans-3" transform="translate(736.375 0)"/>
    <use xlink:href="#DejaVuSans-53" transform="translate(768.15625 0)"/>
    <use xlink:href="#DejaVuSans-55" transform="translate(831.640625 0)"/>
    <use xlink:href="#DejaVuSans-48" transform="translate(870.546875 0)"/>
    <use xlink:href="#DejaVuSans-56" transform="translate(932.078125 0)"/>
    <use xlink:href="#DejaVuSans-48" transform="translate(984.171875 0)"/>
    <use xlink:href="#DejaVuSans-4f" transform="translate(1045.703125 0)"/>
    <use xlink:href="#DejaVuSans-48" transform="translate(1073.484375 0)"/>
    <use xlink:href="#DejaVuSans-46" transform="translate(1135.015625 0)"/>
    <use xlink:href="#DejaVuSans-57" transform="translate(1190 0)"/>
    <use xlink:href="#DejaVuSans-4c" transform="translate(1229.203125 0)"/>
    <use xlink:href="#DejaVuSans-52" transform="translate(1256.984375 0)"/>
    <use xlink:href="#DejaVuSans-51" transform="translate(1318.171875 0)"/>
    <use xlink:href="#DejaVuSans-3" transform="translate(1381.546875 0)"/>
    <use xlink:href="#DejaVuSans-52" transform="translate(1413.328125 0)"/>
    <use xlink:href="#DejaVuSans-51" transform="translate(1474.515625 0)"/>
    <use xlink:href="#DejaVuSans-4f" transform="translate(1537.890625 0)"/>
    <use xlink:href="#DejaVuSans-5c" transform="translate(1565.671875 0)"/>
    <use xlink:href="#DejaVuSans-11" transform="translate(1610.609375 0)"/>
    <use xlink:href="#DejaVuSans-3" transform="translate(1642.390625 0)"/>
    <use xlink:href="#DejaVuSans-24" transform="translate(1674.171875 0)"/>
    <use xlink:href="#DejaVuSans-4f" transform="translate(1742.578125 0)"/>
    <use xlink:href="#DejaVuSans-4f" transform="translate(1770.359375 0)"/>
    <use xlink:href="#DejaVuSans-3" transform="translate(1798.140625 0)"/>
    <use xlink:href="#DejaVuSans-14" transform="translate(1829.921875 0)"/>
    <use xlink:href="#DejaVuSans-17" transform="translate(1893.546875 0)"/>
    <use xlink:href="#DejaVuSans-3" transform="translate(1957.171875 0)"/>
    <use xlink:href="#DejaVuSans-55" transform="translate(1988.953125 0)"/>
    <use xlink:href="#DejaVuSans-48" transform="translate(2027.859375 0)"/>
    <use xlink:href="#DejaVuSans-4f" transform="translate(2089.390625 0)"/>
    <use xlink:href="#DejaVuSans-48" transform="translate(2117.171875 0)"/>
    <use xlink:href="#DejaVuSans-44" transform="translate(2178.703125 0)"/>
    <use xlink:href="#DejaVuSans-56" transform="translate(2239.984375 0)"/>
    <use xlink:href="#DejaVuSans-48" transform="translate(2292.078125 0)"/>
    <use xlink:href="#DejaVuSans-47" transform="translate(2353.609375 0)"/>
    <use xlink:href="#DejaVuSans-3" transform="translate(2417.09375 0)"/>
    <use xlink:href="#DejaVuSans-56" transform="translate(2448.875 0)"/>
    <use xlink:href="#DejaVuSans-4c" transform="translate(2500.96875 0)"/>
    <use xlink:href="#DejaVuSans-51" transform="translate(2528.75 0)"/>
    <use xlink:href="#DejaVuSans-4a" transform="translate(2592.125 0)"/>
    <use xlink:href="#DejaVuSans-4f" transform="translate(2655.609375 0)"/>
    <use xlink:href="#DejaVuSans-48" transform="translate(2683.390625 0)"/>
    <use xlink:href="#DejaVuSans-56" transform="translate(2744.921875 0)"/>
    <use xlink:href="#DejaVuSans-3" transform="translate(2797.015625 0)"/>
    <use xlink:href="#DejaVuSans-44" transform="translate(2828.796875 0)"/>
    <use xlink:href="#DejaVuSans-55" transform="translate(2890.078125 0)"/>
    <use xlink:href="#DejaVuSans-48" transform="translate(2928.984375 0)"/>
    <use xlink:href="#DejaVuSans-3" transform="translate(2990.515625 0)"/>
    <use xlink:href="#DejaVuSans-55" transform="translate(3022.296875 0)"/>
    <use xlink:href="#DejaVuSans-48" transform="translate(3061.203125 0)"/>
    <use xlink:href="#DejaVuSans-57" transform="translate(3122.734375 0)"/>
    <use xlink:href="#DejaVuSans-44" transform="translate(3161.9375 0)"/>
    <use xlink:href="#DejaVuSans-4c" transform="translate(3223.21875 0)"/>
    <use xlink:href="#DejaVuSans-51" transform="translate(3251 0)"/>
    <use xlink:href="#DejaVuSans-48" transform="translate(3314.375 0)"/>
    <use xlink:href="#DejaVuSans-47" transform="translate(3375.90625 0)"/>
    <use xlink:href="#DejaVuSans-3" transform="translate(3439.390625 0)"/>
    <use xlink:href="#DejaVuSans-49" transform="translate(3471.171875 0)"/>
    <use xlink:href="#DejaVuSans-52" transform="translate(3506.375 0)"/>
    <use xlink:href="#DejaVuSans-55" transform="translate(3567.5625 0)"/>
    <use xlink:href="#DejaVuSans-3" transform="translate(3608.671875 0)"/>
    <use xlink:href="#DejaVuSans-46" transform="translate(3640.453125 0)"/>
    <use xlink:href="#DejaVuSans-52" transform="translate(3695.4375 0)"/>
    <use xlink:href="#DejaVuSans-50" transform="translate(3756.625 0)"/>
    <use xlink:href="#DejaVuSans-53" transform="translate(3854.03125 0)"/>
    <use xlink:href="#DejaVuSans-52" transform="translate(3917.515625 0)"/>
    <use xlink:href="#DejaVuSans-51" transform="translate(3978.703125 0)"/>
    <use xlink:href="#DejaVuSans-48" transform="translate(4042.078125 0)"/>
    <use xlink:href="#DejaVuSans-51" transform="translate(4103.609375 0)"/>
    <use xlink:href="#DejaVuSans-57" transform="translate(4166.984375 0)"/>
    <use xlink:href="#DejaVuSans-3" transform="translate(4206.1875 0)"/>
    <use xlink:href="#DejaVuSans-4c" transform="translate(4237.96875 0)"/>
    <use xlink:href="#DejaVuSans-51" transform="translate(4265.75 0)"/>
    <use xlink:href="#DejaVuSans-57" transform="translate(4329.125 0)"/>
    <use xlink:href="#DejaVuSans-48" transform="translate(4368.328125 0)"/>
    <use xlink:href="#DejaVuSans-55" transform="translate(4429.859375 0)"/>
    <use xlink:href="#DejaVuSans-53" transform="translate(4470.96875 0)"/>
    <use xlink:href="#DejaVuSans-55" transform="translate(4534.453125 0)"/>
    <use xlink:href="#DejaVuSans-48" transform="translate(4573.359375 0)"/>
    <use xlink:href="#DejaVuSans-57" transform="translate(4634.890625 0)"/>
    <use xlink:href="#DejaVuSans-44" transform="translate(4674.09375 0)"/>
    <use xlink:href="#DejaVuSans-57" transform="translate(4735.375 0)"/>
    <use xlink:href="#DejaVuSans-4c" transform="translate(4774.578125 0)"/>
    <use xlink:href="#DejaVuSans-52" transform="translate(4802.359375 0)"/>
    <use xlink:href="#DejaVuSans-51" transform="translate(4863.546875 0)"/>
    <use xlink:href="#DejaVuSans-1e" transform="translate(4926.921875 0)"/>
    <use xlink:href="#DejaVuSans-3" transform="translate(4960.609375 0)"/>
    <use xlink:href="#DejaVuSans-14" transform="translate(4992.390625 0)"/>
    <use xlink:href="#DejaVuSans-19" transform="translate(5056.015625 0)"/>
    <use xlink:href="#DejaVuSans-3" transform="translate(5119.640625 0)"/>
    <use xlink:href="#DejaVuSans-47" transform="translate(5151.421875 0)"/>
    <use xlink:href="#DejaVuSans-52" transform="translate(5214.90625 0)"/>
    <use xlink:href="#DejaVuSans-58" transform="translate(5276.09375 0)"/>
    <use xlink:href="#DejaVuSans-45" transform="translate(5339.46875 0)"/>
    <use xlink:href="#DejaVuSans-4f" transform="translate(5402.953125 0)"/>
    <use xlink:href="#DejaVuSans-48" transform="translate(5430.734375 0)"/>
    <use xlink:href="#DejaVuSans-56" transform="translate(5492.265625 0)"/>
    <use xlink:href="#DejaVuSans-3" transform="translate(5544.359375 0)"/>
    <use xlink:href="#DejaVuSans-58" transform="translate(5576.140625 0)"/>
    <use xlink:href="#DejaVuSans-56" transform="translate(5639.515625 0)"/>
    <use xlink:href="#DejaVuSans-48" transform="translate(5691.609375 0)"/>
    <use xlink:href="#DejaVuSans-3" transform="translate(5753.140625 0)"/>
    <use xlink:href="#DejaVuSans-5a" transform="translate(5784.921875 0)"/>
    <use xlink:href="#DejaVuSans-4c" transform="translate(5866.703125 0)"/>
    <use xlink:href="#DejaVuSans-57" transform="translate(5894.484375 0)"/>
    <use xlink:href="#DejaVuSans-4b" transform="translate(5933.6875 0)"/>
    <use xlink:href="#DejaVuSans-4c" transform="translate(5997.0625 0)"/>
    <use xlink:href="#DejaVuSans-51" transform="translate(6024.84375 0)"/>
    <use xlink:href="#DejaVuSans-10" transform="translate(6088.21875 0)"/>
    <use xlink:href="#DejaVuSans-53" transform="translate(6124.296875 0)"/>
    <use xlink:href="#DejaVuSans-55" transform="translate(6187.78125 0)"/>
    <use xlink:href="#DejaVuSans-52" transform="translate(6226.6875 0)"/>
    <use xlink:href="#DejaVuSans-57" transform="translate(6287.875 0)"/>
    <use xlink:href="#DejaVuSans-52" transform="translate(6327.078125 0)"/>
    <use xlink:href="#DejaVuSans-46" transform="translate(6388.265625 0)"/>
    <use xlink:href="#DejaVuSans-52" transform="translate(6443.25 0)"/>
    <use xlink:href="#DejaVuSans-4f" transform="translate(6504.4375 0)"/>
    <use xlink:href="#DejaVuSans-3" transform="translate(6532.21875 0)"/>
    <use xlink:href="#DejaVuSans-33" transform="translate(6564 0)"/>
    <use xlink:href="#DejaVuSans-44" transform="translate(6619.8125 0)"/>
    <use xlink:href="#DejaVuSans-55" transform="translate(6681.09375 0)"/>
    <use xlink:href="#DejaVuSans-48" transform="translate(6720 0)"/>
    <use xlink:href="#DejaVuSans-57" transform="translate(6781.53125 0)"/>
    <use xlink:href="#DejaVuSans-52" transform="translate(6820.734375 0)"/>
    <use xlink:href="#DejaVuSans-3" transform="translate(6881.921875 0)"/>
    <use xlink:href="#DejaVuSans-44" transform="translate(6913.703125 0)"/>
    <use xlink:href="#DejaVuSans-51" transform="translate(6974.984375 0)"/>
    <use xlink:href="#DejaVuSans-47" transform="translate(7038.359375 0)"/>
    <use xlink:href="#DejaVuSans-3" transform="translate(7101.84375 0)"/>
    <use xlink:href="#DejaVuSans-47" transform="translate(7133.625 0)"/>
    <use xlink:href="#DejaVuSans-4c" transform="translate(7197.109375 0)"/>
    <use xlink:href="#DejaVuSans-59" transform="translate(7224.890625 0)"/>
    <use xlink:href="#DejaVuSans-48" transform="translate(7284.078125 0)"/>
    <use xlink:href="#DejaVuSans-55" transform="translate(7345.609375 0)"/>
    <use xlink:href="#DejaVuSans-56" transform="translate(7386.71875 0)"/>
    <use xlink:href="#DejaVuSans-4c" transform="translate(7438.8125 0)"/>
    <use xlink:href="#DejaVuSans-57" transform="translate(7466.59375 0)"/>
    <use xlink:href="#DejaVuSans-5c" transform="translate(7505.796875 0)"/>
    <use xlink:href="#DejaVuSans-f" transform="translate(7564.984375 0)"/>
    <use xlink:href="#DejaVuSans-3" transform="translate(7596.765625 0)"/>
    <use xlink:href="#DejaVuSans-51" transform="translate(7628.546875 0)"/>
    <use xlink:href="#DejaVuSans-52" transform="translate(7691.921875 0)"/>
    <use xlink:href="#DejaVuSans-57" transform="translate(7753.109375 0)"/>
    <use xlink:href="#DejaVuSans-3" transform="translate(7792.3125 0)"/>
    <use xlink:href="#DejaVuSans-44" transform="translate(7824.09375 0)"/>
    <use xlink:href="#DejaVuSans-3" transform="translate(7885.375 0)"/>
    <use xlink:href="#DejaVuSans-5a" transform="translate(7917.15625 0)"/>
    <use xlink:href="#DejaVuSans-48" transform="translate(7998.9375 0)"/>
    <use xlink:href="#DejaVuSans-4c" transform="translate(8060.46875 0)"/>
    <use xlink:href="#DejaVuSans-4a" transform="translate(8088.25 0)"/>
    <use xlink:href="#DejaVuSans-4b" transform="translate(8151.734375 0)"/>
    <use xlink:href="#DejaVuSans-57" transform="translate(8215.109375 0)"/>
    <use xlink:href="#DejaVuSans-48" transform="translate(8254.3125 0)"/>
    <use xlink:href="#DejaVuSans-47" transform="translate(8315.84375 0)"/>
    <use xlink:href="#DejaVuSans-3" transform="translate(8379.328125 0)"/>
    <use xlink:href="#DejaVuSans-56" transform="translate(8411.109375 0)"/>
    <use xlink:href="#DejaVuSans-46" transform="translate(8463.203125 0)"/>
    <use xlink:href="#DejaVuSans-52" transform="translate(8518.1875 0)"/>
    <use xlink:href="#DejaVuSans-55" transform="translate(8579.375 0)"/>
    <use xlink:href="#DejaVuSans-48" transform="translate(8618.28125 0)"/>
    <use xlink:href="#DejaVuSans-11" transform="translate(8679.8125 0)"/>
   </g>
  </g>
 </g>
 <defs>
  <clipPath id="paaf463fb99">
   <rect x="43.088521" y="18.118365" width="281.833225" height="253.871142"/>
  </clipPath>
  <clipPath id="pf33935b350">
   <rect x="365.127528" y="18.118365" width="281.833225" height="253.871142"/>
  </clipPath>
  <clipPath id="pfc2a6f2dc2">
   <rect x="687.166535" y="18.118365" width="281.833225" height="253.871142"/>
  </clipPath>
 </defs>
</svg>
