<?xml version="1.0" encoding="utf-8" standalone="no"?>
<!DOCTYPE svg PUBLIC "-//W3C//DTD SVG 1.1//EN"
  "http://www.w3.org/Graphics/SVG/1.1/DTD/svg11.dtd">
<svg xmlns:xlink="http://www.w3.org/1999/xlink" width="878.4pt" height="360pt" viewBox="0 0 878.4 360" xmlns="http://www.w3.org/2000/svg" version="1.1">
 <metadata>
  <rdf:RDF xmlns:dc="http://purl.org/dc/elements/1.1/" xmlns:cc="http://creativecommons.org/ns#" xmlns:rdf="http://www.w3.org/1999/02/22-rdf-syntax-ns#">
   <cc:Work>
    <dc:type rdf:resource="http://purl.org/dc/dcmitype/StillImage"/>
    <dc:date>2026-08-15T19:42:55.532513</dc:date>
    <dc:format>image/svg+xml</dc:format>
    <dc:creator>
     <cc:Agent>
      <dc:title>Matplotlib v3.11.1, https://matplotlib.org/</dc:title>
     </cc:Agent>
    </dc:creator>
   </cc:Work>
  </rdf:RDF>
 </metadata>
 <defs>
  <style type="text/css">*{stroke-linejoin: round; stroke-linecap: butt}</style>
 </defs>
 <g id="figure_1">
  <g id="patch_1">
   <path d="M 0 360 
L 878.4 360 
L 878.4 0 
L 0 0 
z
" style="fill: #ffffff"/>
  </g>
  <g id="axes_1">
   <g id="patch_2">
    <path d="M 38.743209 316.995551 
L 434.808 316.995551 
L 434.808 52.925408 
L 38.743209 52.925408 
z
" style="fill: #ffffff"/>
   </g>
   <g id="patch_3">
    <path d="M 56.746154 170.253137 
L 67.939695 170.253137 
L 67.939695 277.56304 
L 56.746154 277.56304 
z
" clip-path="url(#pe11d627912)" style="fill: #4c78a8"/>
   </g>
   <g id="patch_4">
    <path d="M 103.385908 170.253137 
L 114.579449 170.253137 
L 114.579449 134.541066 
L 103.385908 134.541066 
z
" clip-path="url(#pe11d627912)" style="fill: #4c78a8"/>
   </g>
   <g id="patch_5">
    <path d="M 150.025662 170.253137 
L 161.219203 170.253137 
L 161.219203 192.590452 
L 150.025662 192.590452 
z
" clip-path="url(#pe11d627912)" style="fill: #4c78a8"/>
   </g>
   <g id="patch_6">
    <path d="M 196.665416 170.253137 
L 207.858957 170.253137 
L 207.858957 147.032636 
L 196.665416 147.032636 
z
" clip-path="url(#pe11d627912)" style="fill: #4c78a8"/>
   </g>
   <g id="patch_7">
    <path d="M 243.30517 170.253137 
L 254.498711 170.253137 
L 254.498711 116.036527 
L 243.30517 116.036527 
z
" clip-path="url(#pe11d627912)" style="fill: #4c78a8"/>
   </g>
   <g id="patch_8">
    <path d="M 289.944924 170.253137 
L 301.138465 170.253137 
L 301.138465 104.403939 
L 289.944924 104.403939 
z
" clip-path="url(#pe11d627912)" style="fill: #4c78a8"/>
   </g>
   <g id="patch_9">
    <path d="M 336.584678 170.253137 
L 347.778219 170.253137 
L 347.778219 172.987536 
L 336.584678 172.987536 
z
" clip-path="url(#pe11d627912)" style="fill: #4c78a8"/>
   </g>
   <g id="patch_10">
    <path d="M 383.224432 170.253137 
L 394.417973 170.253137 
L 394.417973 221.727558 
L 383.224432 221.727558 
z
" clip-path="url(#pe11d627912)" style="fill: #4c78a8"/>
   </g>
   <g id="patch_11">
    <path d="M 67.939695 170.253137 
L 79.133236 170.253137 
L 79.133236 304.992363 
L 67.939695 304.992363 
z
" clip-path="url(#pe11d627912)" style="fill: #f58518"/>
   </g>
   <g id="patch_12">
    <path d="M 114.579449 170.253137 
L 125.77299 170.253137 
L 125.77299 151.160237 
L 114.579449 151.160237 
z
" clip-path="url(#pe11d627912)" style="fill: #f58518"/>
   </g>
   <g id="patch_13">
    <path d="M 161.219203 170.253137 
L 172.412744 170.253137 
L 172.412744 190.29474 
L 161.219203 190.29474 
z
" clip-path="url(#pe11d627912)" style="fill: #f58518"/>
   </g>
   <g id="patch_14">
    <path d="M 207.858957 170.253137 
L 219.052498 170.253137 
L 219.052498 210.806654 
L 207.858957 210.806654 
z
" clip-path="url(#pe11d627912)" style="fill: #f58518"/>
   </g>
   <g id="patch_15">
    <path d="M 254.498711 170.253137 
L 265.692252 170.253137 
L 265.692252 228.09039 
L 254.498711 228.09039 
z
" clip-path="url(#pe11d627912)" style="fill: #f58518"/>
   </g>
   <g id="patch_16">
    <path d="M 301.138465 170.253137 
L 312.332006 170.253137 
L 312.332006 137.84906 
L 301.138465 137.84906 
z
" clip-path="url(#pe11d627912)" style="fill: #f58518"/>
   </g>
   <g id="patch_17">
    <path d="M 347.778219 170.253137 
L 358.97176 170.253137 
L 358.97176 210.78802 
L 347.778219 210.78802 
z
" clip-path="url(#pe11d627912)" style="fill: #f58518"/>
   </g>
   <g id="patch_18">
    <path d="M 394.417973 170.253137 
L 405.611514 170.253137 
L 405.611514 203.719424 
L 394.417973 203.719424 
z
" clip-path="url(#pe11d627912)" style="fill: #f58518"/>
   </g>
   <g id="patch_19">
    <path d="M 79.133236 170.253137 
L 90.326777 170.253137 
L 90.326777 293.68696 
L 79.133236 293.68696 
z
" clip-path="url(#pe11d627912)" style="fill: #54a24b"/>
   </g>
   <g id="patch_20">
    <path d="M 125.77299 170.253137 
L 136.966531 170.253137 
L 136.966531 82.250279 
L 125.77299 82.250279 
z
" clip-path="url(#pe11d627912)" style="fill: #54a24b"/>
   </g>
   <g id="patch_21">
    <path d="M 172.412744 170.253137 
L 183.606285 170.253137 
L 183.606285 211.621042 
L 172.412744 211.621042 
z
" clip-path="url(#pe11d627912)" style="fill: #54a24b"/>
   </g>
   <g id="patch_22">
    <path d="M 219.052498 170.253137 
L 230.246039 170.253137 
L 230.246039 217.200139 
L 219.052498 217.200139 
z
" clip-path="url(#pe11d627912)" style="fill: #54a24b"/>
   </g>
   <g id="patch_23">
    <path d="M 265.692252 170.253137 
L 276.885793 170.253137 
L 276.885793 64.928596 
L 265.692252 64.928596 
z
" clip-path="url(#pe11d627912)" style="fill: #54a24b"/>
   </g>
   <g id="patch_24">
    <path d="M 312.332006 170.253137 
L 323.525547 170.253137 
L 323.525547 85.301921 
L 312.332006 85.301921 
z
" clip-path="url(#pe11d627912)" style="fill: #54a24b"/>
   </g>
   <g id="patch_25">
    <path d="M 358.97176 170.253137 
L 370.165301 170.253137 
L 370.165301 119.343744 
L 358.97176 119.343744 
z
" clip-path="url(#pe11d627912)" style="fill: #54a24b"/>
   </g>
   <g id="patch_26">
    <path d="M 405.611514 170.253137 
L 416.805055 170.253137 
L 416.805055 266.102825 
L 405.611514 266.102825 
z
" clip-path="url(#pe11d627912)" style="fill: #54a24b"/>
   </g>
   <g id="matplotlib.axis_1">
    <g id="xtick_1">
     <g id="line2d_1">
      <defs>
       <path id="m5991ec2632" d="M 0 0 
L 0 3.5 
" style="stroke: #000000; stroke-width: 0.8"/>
      </defs>
      <g>
       <use xlink:href="#m5991ec2632" x="73.536465" y="316.995551" style="stroke: #000000; stroke-width: 0.8"/>
      </g>
     </g>
     <g id="text_1">
      <!-- R45C -->
      <g transform="translate(52.988937 348.21672) rotate(-45) scale(0.1 -0.1)">
       <defs>
        <path id="DejaVuSans-35" d="M 2841 2188 
Q 3044 2119 3236 1894 
Q 3428 1669 3622 1275 
L 4263 0 
L 3584 0 
L 2988 1197 
Q 2756 1666 2539 1819 
Q 2322 1972 1947 1972 
L 1259 1972 
L 1259 0 
L 628 0 
L 628 4666 
L 2053 4666 
Q 2853 4666 3247 4331 
Q 3641 3997 3641 3322 
Q 3641 2881 3436 2590 
Q 3231 2300 2841 2188 
z
M 1259 4147 
L 1259 2491 
L 2053 2491 
Q 2509 2491 2742 2702 
Q 2975 2913 2975 3322 
Q 2975 3731 2742 3939 
Q 2509 4147 2053 4147 
L 1259 4147 
z
" transform="scale(0.015625)"/>
        <path id="DejaVuSans-17" d="M 2419 4116 
L 825 1625 
L 2419 1625 
L 2419 4116 
z
M 2253 4666 
L 3047 4666 
L 3047 1625 
L 3713 1625 
L 3713 1100 
L 3047 1100 
L 3047 0 
L 2419 0 
L 2419 1100 
L 313 1100 
L 313 1709 
L 2253 4666 
z
" transform="scale(0.015625)"/>
        <path id="DejaVuSans-18" d="M 691 4666 
L 3169 4666 
L 3169 4134 
L 1269 4134 
L 1269 2991 
Q 1406 3038 1543 3061 
Q 1681 3084 1819 3084 
Q 2600 3084 3056 2656 
Q 3513 2228 3513 1497 
Q 3513 744 3044 326 
Q 2575 -91 1722 -91 
Q 1428 -91 1123 -41 
Q 819 9 494 109 
L 494 744 
Q 775 591 1075 516 
Q 1375 441 1709 441 
Q 2250 441 2565 725 
Q 2881 1009 2881 1497 
Q 2881 1984 2565 2268 
Q 2250 2553 1709 2553 
Q 1456 2553 1204 2497 
Q 953 2441 691 2322 
L 691 4666 
z
" transform="scale(0.015625)"/>
        <path id="DejaVuSans-26" d="M 4122 4306 
L 4122 3641 
Q 3803 3938 3442 4084 
Q 3081 4231 2675 4231 
Q 1875 4231 1450 3742 
Q 1025 3253 1025 2328 
Q 1025 1406 1450 917 
Q 1875 428 2675 428 
Q 3081 428 3442 575 
Q 3803 722 4122 1019 
L 4122 359 
Q 3791 134 3420 21 
Q 3050 -91 2638 -91 
Q 1578 -91 968 557 
Q 359 1206 359 2328 
Q 359 3453 968 4101 
Q 1578 4750 2638 4750 
Q 3056 4750 3426 4639 
Q 3797 4528 4122 4306 
z
" transform="scale(0.015625)"/>
       </defs>
       <use xlink:href="#DejaVuSans-35"/>
       <use xlink:href="#DejaVuSans-17" transform="translate(69.484375 0)"/>
       <use xlink:href="#DejaVuSans-18" transform="translate(133.109375 0)"/>
       <use xlink:href="#DejaVuSans-26" transform="translate(196.734375 0)"/>
      </g>
     </g>
    </g>
    <g id="xtick_2">
     <g id="line2d_2">
      <g>
       <use xlink:href="#m5991ec2632" x="120.176219" y="316.995551" style="stroke: #000000; stroke-width: 0.8"/>
      </g>
     </g>
     <g id="text_2">
      <!-- R45V -->
      <g transform="translate(99.729232 348.116179) rotate(-45) scale(0.1 -0.1)">
       <defs>
        <path id="DejaVuSans-39" d="M 1831 0 
L 50 4666 
L 709 4666 
L 2188 738 
L 3669 4666 
L 4325 4666 
L 2547 0 
L 1831 0 
z
" transform="scale(0.015625)"/>
       </defs>
       <use xlink:href="#DejaVuSans-35"/>
       <use xlink:href="#DejaVuSans-17" transform="translate(69.484375 0)"/>
       <use xlink:href="#DejaVuSans-18" transform="translate(133.109375 0)"/>
       <use xlink:href="#DejaVuSans-39" transform="translate(196.734375 0)"/>
      </g>
     </g>
    </g>
    <g id="xtick_3">
     <g id="line2d_3">
      <g>
       <use xlink:href="#m5991ec2632" x="166.815973" y="316.995551" style="stroke: #000000; stroke-width: 0.8"/>
      </g>
     </g>
     <g id="text_3">
      <!-- D101W -->
      <g transform="translate(139.184119 355.301046) rotate(-45) scale(0.1 -0.1)">
       <defs>
        <path id="DejaVuSans-27" d="M 1259 4147 
L 1259 519 
L 2022 519 
Q 2988 519 3436 956 
Q 3884 1394 3884 2338 
Q 3884 3275 3436 3711 
Q 2988 4147 2022 4147 
L 1259 4147 
z
M 628 4666 
L 1925 4666 
Q 3281 4666 3915 4102 
Q 4550 3538 4550 2338 
Q 4550 1131 3912 565 
Q 3275 0 1925 0 
L 628 0 
L 628 4666 
z
" transform="scale(0.015625)"/>
        <path id="DejaVuSans-14" d="M 794 531 
L 1825 531 
L 1825 4091 
L 703 3866 
L 703 4441 
L 1819 4666 
L 2450 4666 
L 2450 531 
L 3481 531 
L 3481 0 
L 794 0 
L 794 531 
z
" transform="scale(0.015625)"/>
        <path id="DejaVuSans-13" d="M 2034 4250 
Q 1547 4250 1301 3770 
Q 1056 3291 1056 2328 
Q 1056 1369 1301 889 
Q 1547 409 2034 409 
Q 2525 409 2770 889 
Q 3016 1369 3016 2328 
Q 3016 3291 2770 3770 
Q 2525 4250 2034 4250 
z
M 2034 4750 
Q 2819 4750 3233 4129 
Q 3647 3509 3647 2328 
Q 3647 1150 3233 529 
Q 2819 -91 2034 -91 
Q 1250 -91 836 529 
Q 422 1150 422 2328 
Q 422 3509 836 4129 
Q 1250 4750 2034 4750 
z
" transform="scale(0.015625)"/>
        <path id="DejaVuSans-3a" d="M 213 4666 
L 850 4666 
L 1831 722 
L 2809 4666 
L 3519 4666 
L 4500 722 
L 5478 4666 
L 6119 4666 
L 4947 0 
L 4153 0 
L 3169 4050 
L 2175 0 
L 1381 0 
L 213 4666 
z
" transform="scale(0.015625)"/>
       </defs>
       <use xlink:href="#DejaVuSans-27"/>
       <use xlink:href="#DejaVuSans-14" transform="translate(77 0)"/>
       <use xlink:href="#DejaVuSans-13" transform="translate(140.625 0)"/>
       <use xlink:href="#DejaVuSans-14" transform="translate(204.25 0)"/>
       <use xlink:href="#DejaVuSans-3a" transform="translate(267.875 0)"/>
      </g>
     </g>
    </g>
    <g id="xtick_4">
     <g id="line2d_4">
      <g>
       <use xlink:href="#m5991ec2632" x="213.455727" y="316.995551" style="stroke: #000000; stroke-width: 0.8"/>
      </g>
     </g>
     <g id="text_4">
      <!-- I103W -->
      <g transform="translate(189.18263 351.942289) rotate(-45) scale(0.1 -0.1)">
       <defs>
        <path id="DejaVuSans-2c" d="M 628 4666 
L 1259 4666 
L 1259 0 
L 628 0 
L 628 4666 
z
" transform="scale(0.015625)"/>
        <path id="DejaVuSans-16" d="M 2597 2516 
Q 3050 2419 3304 2112 
Q 3559 1806 3559 1356 
Q 3559 666 3084 287 
Q 2609 -91 1734 -91 
Q 1441 -91 1130 -33 
Q 819 25 488 141 
L 488 750 
Q 750 597 1062 519 
Q 1375 441 1716 441 
Q 2309 441 2620 675 
Q 2931 909 2931 1356 
Q 2931 1769 2642 2001 
Q 2353 2234 1838 2234 
L 1294 2234 
L 1294 2753 
L 1863 2753 
Q 2328 2753 2575 2939 
Q 2822 3125 2822 3475 
Q 2822 3834 2567 4026 
Q 2313 4219 1838 4219 
Q 1578 4219 1281 4162 
Q 984 4106 628 3988 
L 628 4550 
Q 988 4650 1302 4700 
Q 1616 4750 1894 4750 
Q 2613 4750 3031 4423 
Q 3450 4097 3450 3541 
Q 3450 3153 3228 2886 
Q 3006 2619 2597 2516 
z
" transform="scale(0.015625)"/>
       </defs>
       <use xlink:href="#DejaVuSans-2c"/>
       <use xlink:href="#DejaVuSans-14" transform="translate(29.5 0)"/>
       <use xlink:href="#DejaVuSans-13" transform="translate(93.125 0)"/>
       <use xlink:href="#DejaVuSans-16" transform="translate(156.75 0)"/>
       <use xlink:href="#DejaVuSans-3a" transform="translate(220.375 0)"/>
      </g>
     </g>
    </g>
    <g id="xtick_5">
     <g id="line2d_5">
      <g>
       <use xlink:href="#m5991ec2632" x="260.095481" y="316.995551" style="stroke: #000000; stroke-width: 0.8"/>
      </g>
     </g>
     <g id="text_5">
      <!-- E105F -->
      <g transform="translate(236.364867 351.399806) rotate(-45) scale(0.1 -0.1)">
       <defs>
        <path id="DejaVuSans-28" d="M 628 4666 
L 3578 4666 
L 3578 4134 
L 1259 4134 
L 1259 2753 
L 3481 2753 
L 3481 2222 
L 1259 2222 
L 1259 531 
L 3634 531 
L 3634 0 
L 628 0 
L 628 4666 
z
" transform="scale(0.015625)"/>
        <path id="DejaVuSans-29" d="M 628 4666 
L 3309 4666 
L 3309 4134 
L 1259 4134 
L 1259 2759 
L 3109 2759 
L 3109 2228 
L 1259 2228 
L 1259 0 
L 628 0 
L 628 4666 
z
" transform="scale(0.015625)"/>
       </defs>
       <use xlink:href="#DejaVuSans-28"/>
       <use xlink:href="#DejaVuSans-14" transform="translate(63.1875 0)"/>
       <use xlink:href="#DejaVuSans-13" transform="translate(126.8125 0)"/>
       <use xlink:href="#DejaVuSans-18" transform="translate(190.4375 0)"/>
       <use xlink:href="#DejaVuSans-29" transform="translate(254.0625 0)"/>
      </g>
     </g>
    </g>
    <g id="xtick_6">
     <g id="line2d_6">
      <g>
       <use xlink:href="#m5991ec2632" x="306.735235" y="316.995551" style="stroke: #000000; stroke-width: 0.8"/>
      </g>
     </g>
     <g id="text_6">
      <!-- E105L -->
      <g transform="translate(283.13168 351.272747) rotate(-45) scale(0.1 -0.1)">
       <defs>
        <path id="DejaVuSans-2f" d="M 628 4666 
L 1259 4666 
L 1259 531 
L 3531 531 
L 3531 0 
L 628 0 
L 628 4666 
z
" transform="scale(0.015625)"/>
       </defs>
       <use xlink:href="#DejaVuSans-28"/>
       <use xlink:href="#DejaVuSans-14" transform="translate(63.1875 0)"/>
       <use xlink:href="#DejaVuSans-13" transform="translate(126.8125 0)"/>
       <use xlink:href="#DejaVuSans-18" transform="translate(190.4375 0)"/>
       <use xlink:href="#DejaVuSans-2f" transform="translate(254.0625 0)"/>
      </g>
     </g>
    </g>
    <g id="xtick_7">
     <g id="line2d_7">
      <g>
       <use xlink:href="#m5991ec2632" x="353.374989" y="316.995551" style="stroke: #000000; stroke-width: 0.8"/>
      </g>
     </g>
     <g id="text_7">
      <!-- N107A -->
      <g transform="translate(328.05228 352.991901) rotate(-45) scale(0.1 -0.1)">
       <defs>
        <path id="DejaVuSans-31" d="M 628 4666 
L 1478 4666 
L 3547 763 
L 3547 4666 
L 4159 4666 
L 4159 0 
L 3309 0 
L 1241 3903 
L 1241 0 
L 628 0 
L 628 4666 
z
" transform="scale(0.015625)"/>
        <path id="DejaVuSans-1a" d="M 525 4666 
L 3525 4666 
L 3525 4397 
L 1831 0 
L 1172 0 
L 2766 4134 
L 525 4134 
L 525 4666 
z
" transform="scale(0.015625)"/>
        <path id="DejaVuSans-24" d="M 2188 4044 
L 1331 1722 
L 3047 1722 
L 2188 4044 
z
M 1831 4666 
L 2547 4666 
L 4325 0 
L 3669 0 
L 3244 1197 
L 1141 1197 
L 716 0 
L 50 0 
L 1831 4666 
z
" transform="scale(0.015625)"/>
       </defs>
       <use xlink:href="#DejaVuSans-31"/>
       <use xlink:href="#DejaVuSans-14" transform="translate(74.8125 0)"/>
       <use xlink:href="#DejaVuSans-13" transform="translate(138.4375 0)"/>
       <use xlink:href="#DejaVuSans-1a" transform="translate(202.0625 0)"/>
       <use xlink:href="#DejaVuSans-24" transform="translate(265.6875 0)"/>
      </g>
     </g>
    </g>
    <g id="xtick_8">
     <g id="line2d_8">
      <g>
       <use xlink:href="#m5991ec2632" x="400.014743" y="316.995551" style="stroke: #000000; stroke-width: 0.8"/>
      </g>
     </g>
     <g id="text_8">
      <!-- S114M -->
      <g transform="translate(374.2291 353.454835) rotate(-45) scale(0.1 -0.1)">
       <defs>
        <path id="DejaVuSans-36" d="M 3425 4513 
L 3425 3897 
Q 3066 4069 2747 4153 
Q 2428 4238 2131 4238 
Q 1616 4238 1336 4038 
Q 1056 3838 1056 3469 
Q 1056 3159 1242 3001 
Q 1428 2844 1947 2747 
L 2328 2669 
Q 3034 2534 3370 2195 
Q 3706 1856 3706 1288 
Q 3706 609 3251 259 
Q 2797 -91 1919 -91 
Q 1588 -91 1214 -16 
Q 841 59 441 206 
L 441 856 
Q 825 641 1194 531 
Q 1563 422 1919 422 
Q 2459 422 2753 634 
Q 3047 847 3047 1241 
Q 3047 1584 2836 1778 
Q 2625 1972 2144 2069 
L 1759 2144 
Q 1053 2284 737 2584 
Q 422 2884 422 3419 
Q 422 4038 858 4394 
Q 1294 4750 2059 4750 
Q 2388 4750 2728 4690 
Q 3069 4631 3425 4513 
z
" transform="scale(0.015625)"/>
        <path id="DejaVuSans-30" d="M 628 4666 
L 1569 4666 
L 2759 1491 
L 3956 4666 
L 4897 4666 
L 4897 0 
L 4281 0 
L 4281 4097 
L 3078 897 
L 2444 897 
L 1241 4097 
L 1241 0 
L 628 0 
L 628 4666 
z
" transform="scale(0.015625)"/>
       </defs>
       <use xlink:href="#DejaVuSans-36"/>
       <use xlink:href="#DejaVuSans-14" transform="translate(63.484375 0)"/>
       <use xlink:href="#DejaVuSans-14" transform="translate(127.109375 0)"/>
       <use xlink:href="#DejaVuSans-17" transform="translate(190.734375 0)"/>
       <use xlink:href="#DejaVuSans-30" transform="translate(254.359375 0)"/>
      </g>
     </g>
    </g>
   </g>
   <g id="matplotlib.axis_2">
    <g id="ytick_1">
     <g id="line2d_9">
      <defs>
       <path id="m0f2575f0b3" d="M 0 0 
L -3.5 0 
" style="stroke: #000000; stroke-width: 0.8"/>
      </defs>
      <g>
       <use xlink:href="#m0f2575f0b3" x="38.743209" y="283.524805" style="stroke: #000000; stroke-width: 0.8"/>
      </g>
     </g>
     <g id="text_9">
      <!-- −4 -->
      <g transform="translate(17.001021 287.323634) scale(0.1 -0.1)">
       <defs>
        <path id="DejaVuSans-c9c" d="M 678 2272 
L 4684 2272 
L 4684 1741 
L 678 1741 
L 678 2272 
z
" transform="scale(0.015625)"/>
       </defs>
       <use xlink:href="#DejaVuSans-c9c"/>
       <use xlink:href="#DejaVuSans-17" transform="translate(83.796875 0)"/>
      </g>
     </g>
    </g>
    <g id="ytick_2">
     <g id="line2d_10">
      <g>
       <use xlink:href="#m0f2575f0b3" x="38.743209" y="226.888971" style="stroke: #000000; stroke-width: 0.8"/>
      </g>
     </g>
     <g id="text_10">
      <!-- −2 -->
      <g transform="translate(17.001021 230.687799) scale(0.1 -0.1)">
       <defs>
        <path id="DejaVuSans-15" d="M 1228 531 
L 3431 531 
L 3431 0 
L 469 0 
L 469 531 
Q 828 903 1448 1529 
Q 2069 2156 2228 2338 
Q 2531 2678 2651 2914 
Q 2772 3150 2772 3378 
Q 2772 3750 2511 3984 
Q 2250 4219 1831 4219 
Q 1534 4219 1204 4116 
Q 875 4013 500 3803 
L 500 4441 
Q 881 4594 1212 4672 
Q 1544 4750 1819 4750 
Q 2544 4750 2975 4387 
Q 3406 4025 3406 3419 
Q 3406 3131 3298 2873 
Q 3191 2616 2906 2266 
Q 2828 2175 2409 1742 
Q 1991 1309 1228 531 
z
" transform="scale(0.015625)"/>
       </defs>
       <use xlink:href="#DejaVuSans-c9c"/>
       <use xlink:href="#DejaVuSans-15" transform="translate(83.796875 0)"/>
      </g>
     </g>
    </g>
    <g id="ytick_3">
     <g id="line2d_11">
      <g>
       <use xlink:href="#m0f2575f0b3" x="38.743209" y="170.253137" style="stroke: #000000; stroke-width: 0.8"/>
      </g>
     </g>
     <g id="text_11">
      <!-- 0 -->
      <g transform="translate(25.380709 174.051965) scale(0.1 -0.1)">
       <use xlink:href="#DejaVuSans-13"/>
      </g>
     </g>
    </g>
    <g id="ytick_4">
     <g id="line2d_12">
      <g>
       <use xlink:href="#m0f2575f0b3" x="38.743209" y="113.617303" style="stroke: #000000; stroke-width: 0.8"/>
      </g>
     </g>
     <g id="text_12">
      <!-- 2 -->
      <g transform="translate(25.380709 117.416131) scale(0.1 -0.1)">
       <use xlink:href="#DejaVuSans-15"/>
      </g>
     </g>
    </g>
    <g id="ytick_5">
     <g id="line2d_13">
      <g>
       <use xlink:href="#m0f2575f0b3" x="38.743209" y="56.981469" style="stroke: #000000; stroke-width: 0.8"/>
      </g>
     </g>
     <g id="text_13">
      <!-- 4 -->
      <g transform="translate(25.380709 60.780297) scale(0.1 -0.1)">
       <use xlink:href="#DejaVuSans-17"/>
      </g>
     </g>
    </g>
    <g id="text_14">
     <!-- Δ log P(mutant − WT), AntiFold -->
     <g transform="translate(10.598677 263.09251) rotate(-90) scale(0.1 -0.1)">
      <defs>
       <path id="DejaVuSans-329" d="M 2188 4044 
L 906 525 
L 3472 525 
L 2188 4044 
z
M 50 0 
L 1831 4666 
L 2547 4666 
L 4325 0 
L 50 0 
z
" transform="scale(0.015625)"/>
       <path id="DejaVuSans-3" transform="scale(0.015625)"/>
       <path id="DejaVuSans-4f" d="M 603 4863 
L 1178 4863 
L 1178 0 
L 603 0 
L 603 4863 
z
" transform="scale(0.015625)"/>
       <path id="DejaVuSans-52" d="M 1959 3097 
Q 1497 3097 1228 2736 
Q 959 2375 959 1747 
Q 959 1119 1226 758 
Q 1494 397 1959 397 
Q 2419 397 2687 759 
Q 2956 1122 2956 1747 
Q 2956 2369 2687 2733 
Q 2419 3097 1959 3097 
z
M 1959 3584 
Q 2709 3584 3137 3096 
Q 3566 2609 3566 1747 
Q 3566 888 3137 398 
Q 2709 -91 1959 -91 
Q 1206 -91 779 398 
Q 353 888 353 1747 
Q 353 2609 779 3096 
Q 1206 3584 1959 3584 
z
" transform="scale(0.015625)"/>
       <path id="DejaVuSans-4a" d="M 2906 1791 
Q 2906 2416 2648 2759 
Q 2391 3103 1925 3103 
Q 1463 3103 1205 2759 
Q 947 2416 947 1791 
Q 947 1169 1205 825 
Q 1463 481 1925 481 
Q 2391 481 2648 825 
Q 2906 1169 2906 1791 
z
M 3481 434 
Q 3481 -459 3084 -895 
Q 2688 -1331 1869 -1331 
Q 1566 -1331 1297 -1286 
Q 1028 -1241 775 -1147 
L 775 -588 
Q 1028 -725 1275 -790 
Q 1522 -856 1778 -856 
Q 2344 -856 2625 -561 
Q 2906 -266 2906 331 
L 2906 616 
Q 2728 306 2450 153 
Q 2172 0 1784 0 
Q 1141 0 747 490 
Q 353 981 353 1791 
Q 353 2603 747 3093 
Q 1141 3584 1784 3584 
Q 2172 3584 2450 3431 
Q 2728 3278 2906 2969 
L 2906 3500 
L 3481 3500 
L 3481 434 
z
" transform="scale(0.015625)"/>
       <path id="DejaVuSans-33" d="M 1259 4147 
L 1259 2394 
L 2053 2394 
Q 2494 2394 2734 2622 
Q 2975 2850 2975 3272 
Q 2975 3691 2734 3919 
Q 2494 4147 2053 4147 
L 1259 4147 
z
M 628 4666 
L 2053 4666 
Q 2838 4666 3239 4311 
Q 3641 3956 3641 3272 
Q 3641 2581 3239 2228 
Q 2838 1875 2053 1875 
L 1259 1875 
L 1259 0 
L 628 0 
L 628 4666 
z
" transform="scale(0.015625)"/>
       <path id="DejaVuSans-b" d="M 1984 4856 
Q 1566 4138 1362 3434 
Q 1159 2731 1159 2009 
Q 1159 1288 1364 580 
Q 1569 -128 1984 -844 
L 1484 -844 
Q 1016 -109 783 600 
Q 550 1309 550 2009 
Q 550 2706 781 3412 
Q 1013 4119 1484 4856 
L 1984 4856 
z
" transform="scale(0.015625)"/>
       <path id="DejaVuSans-50" d="M 3328 2828 
Q 3544 3216 3844 3400 
Q 4144 3584 4550 3584 
Q 5097 3584 5394 3201 
Q 5691 2819 5691 2113 
L 5691 0 
L 5113 0 
L 5113 2094 
Q 5113 2597 4934 2840 
Q 4756 3084 4391 3084 
Q 3944 3084 3684 2787 
Q 3425 2491 3425 1978 
L 3425 0 
L 2847 0 
L 2847 2094 
Q 2847 2600 2669 2842 
Q 2491 3084 2119 3084 
Q 1678 3084 1418 2786 
Q 1159 2488 1159 1978 
L 1159 0 
L 581 0 
L 581 3500 
L 1159 3500 
L 1159 2956 
Q 1356 3278 1631 3431 
Q 1906 3584 2284 3584 
Q 2666 3584 2933 3390 
Q 3200 3197 3328 2828 
z
" transform="scale(0.015625)"/>
       <path id="DejaVuSans-58" d="M 544 1381 
L 544 3500 
L 1119 3500 
L 1119 1403 
Q 1119 906 1312 657 
Q 1506 409 1894 409 
Q 2359 409 2629 706 
Q 2900 1003 2900 1516 
L 2900 3500 
L 3475 3500 
L 3475 0 
L 2900 0 
L 2900 538 
Q 2691 219 2414 64 
Q 2138 -91 1772 -91 
Q 1169 -91 856 284 
Q 544 659 544 1381 
z
M 1991 3584 
L 1991 3584 
z
" transform="scale(0.015625)"/>
       <path id="DejaVuSans-57" d="M 1172 4494 
L 1172 3500 
L 2356 3500 
L 2356 3053 
L 1172 3053 
L 1172 1153 
Q 1172 725 1289 603 
Q 1406 481 1766 481 
L 2356 481 
L 2356 0 
L 1766 0 
Q 1100 0 847 248 
Q 594 497 594 1153 
L 594 3053 
L 172 3053 
L 172 3500 
L 594 3500 
L 594 4494 
L 1172 4494 
z
" transform="scale(0.015625)"/>
       <path id="DejaVuSans-44" d="M 2194 1759 
Q 1497 1759 1228 1600 
Q 959 1441 959 1056 
Q 959 750 1161 570 
Q 1363 391 1709 391 
Q 2188 391 2477 730 
Q 2766 1069 2766 1631 
L 2766 1759 
L 2194 1759 
z
M 3341 1997 
L 3341 0 
L 2766 0 
L 2766 531 
Q 2569 213 2275 61 
Q 1981 -91 1556 -91 
Q 1019 -91 701 211 
Q 384 513 384 1019 
Q 384 1609 779 1909 
Q 1175 2209 1959 2209 
L 2766 2209 
L 2766 2266 
Q 2766 2663 2505 2880 
Q 2244 3097 1772 3097 
Q 1472 3097 1187 3025 
Q 903 2953 641 2809 
L 641 3341 
Q 956 3463 1253 3523 
Q 1550 3584 1831 3584 
Q 2591 3584 2966 3190 
Q 3341 2797 3341 1997 
z
" transform="scale(0.015625)"/>
       <path id="DejaVuSans-51" d="M 3513 2113 
L 3513 0 
L 2938 0 
L 2938 2094 
Q 2938 2591 2744 2837 
Q 2550 3084 2163 3084 
Q 1697 3084 1428 2787 
Q 1159 2491 1159 1978 
L 1159 0 
L 581 0 
L 581 3500 
L 1159 3500 
L 1159 2956 
Q 1366 3272 1645 3428 
Q 1925 3584 2291 3584 
Q 2894 3584 3203 3211 
Q 3513 2838 3513 2113 
z
" transform="scale(0.015625)"/>
       <path id="DejaVuSans-37" d="M -19 4666 
L 3928 4666 
L 3928 4134 
L 2272 4134 
L 2272 0 
L 1638 0 
L 1638 4134 
L -19 4134 
L -19 4666 
z
" transform="scale(0.015625)"/>
       <path id="DejaVuSans-c" d="M 513 4856 
L 1013 4856 
Q 1481 4119 1714 3412 
Q 1947 2706 1947 2009 
Q 1947 1309 1714 600 
Q 1481 -109 1013 -844 
L 513 -844 
Q 928 -128 1133 580 
Q 1338 1288 1338 2009 
Q 1338 2731 1133 3434 
Q 928 4138 513 4856 
z
" transform="scale(0.015625)"/>
       <path id="DejaVuSans-f" d="M 750 794 
L 1409 794 
L 1409 256 
L 897 -744 
L 494 -744 
L 750 256 
L 750 794 
z
" transform="scale(0.015625)"/>
       <path id="DejaVuSans-4c" d="M 603 3500 
L 1178 3500 
L 1178 0 
L 603 0 
L 603 3500 
z
M 603 4863 
L 1178 4863 
L 1178 4134 
L 603 4134 
L 603 4863 
z
" transform="scale(0.015625)"/>
       <path id="DejaVuSans-47" d="M 2906 2969 
L 2906 4863 
L 3481 4863 
L 3481 0 
L 2906 0 
L 2906 525 
Q 2725 213 2448 61 
Q 2172 -91 1784 -91 
Q 1150 -91 751 415 
Q 353 922 353 1747 
Q 353 2572 751 3078 
Q 1150 3584 1784 3584 
Q 2172 3584 2448 3432 
Q 2725 3281 2906 2969 
z
M 947 1747 
Q 947 1113 1208 752 
Q 1469 391 1925 391 
Q 2381 391 2643 752 
Q 2906 1113 2906 1747 
Q 2906 2381 2643 2742 
Q 2381 3103 1925 3103 
Q 1469 3103 1208 2742 
Q 947 2381 947 1747 
z
" transform="scale(0.015625)"/>
      </defs>
      <use xlink:href="#DejaVuSans-329"/>
      <use xlink:href="#DejaVuSans-3" transform="translate(68.40625 0)"/>
      <use xlink:href="#DejaVuSans-4f" transform="translate(100.1875 0)"/>
      <use xlink:href="#DejaVuSans-52" transform="translate(127.96875 0)"/>
      <use xlink:href="#DejaVuSans-4a" transform="translate(189.15625 0)"/>
      <use xlink:href="#DejaVuSans-3" transform="translate(252.640625 0)"/>
      <use xlink:href="#DejaVuSans-33" transform="translate(284.421875 0)"/>
      <use xlink:href="#DejaVuSans-b" transform="translate(344.71875 0)"/>
      <use xlink:href="#DejaVuSans-50" transform="translate(383.734375 0)"/>
      <use xlink:href="#DejaVuSans-58" transform="translate(481.140625 0)"/>
      <use xlink:href="#DejaVuSans-57" transform="translate(544.515625 0)"/>
      <use xlink:href="#DejaVuSans-44" transform="translate(583.71875 0)"/>
      <use xlink:href="#DejaVuSans-51" transform="translate(645 0)"/>
      <use xlink:href="#DejaVuSans-57" transform="translate(708.375 0)"/>
      <use xlink:href="#DejaVuSans-3" transform="translate(747.578125 0)"/>
      <use xlink:href="#DejaVuSans-c9c" transform="translate(779.359375 0)"/>
      <use xlink:href="#DejaVuSans-3" transform="translate(863.15625 0)"/>
      <use xlink:href="#DejaVuSans-3a" transform="translate(894.9375 0)"/>
      <use xlink:href="#DejaVuSans-37" transform="translate(993.8125 0)"/>
      <use xlink:href="#DejaVuSans-c" transform="translate(1054.890625 0)"/>
      <use xlink:href="#DejaVuSans-f" transform="translate(1093.90625 0)"/>
      <use xlink:href="#DejaVuSans-3" transform="translate(1125.6875 0)"/>
      <use xlink:href="#DejaVuSans-24" transform="translate(1157.46875 0)"/>
      <use xlink:href="#DejaVuSans-51" transform="translate(1225.875 0)"/>
      <use xlink:href="#DejaVuSans-57" transform="translate(1289.25 0)"/>
      <use xlink:href="#DejaVuSans-4c" transform="translate(1328.453125 0)"/>
      <use xlink:href="#DejaVuSans-29" transform="translate(1356.234375 0)"/>
      <use xlink:href="#DejaVuSans-52" transform="translate(1410.1875 0)"/>
      <use xlink:href="#DejaVuSans-4f" transform="translate(1471.375 0)"/>
      <use xlink:href="#DejaVuSans-47" transform="translate(1499.15625 0)"/>
     </g>
    </g>
   </g>
   <g id="line2d_14">
    <path d="M 38.743209 170.253137 
L 434.808 170.253137 
" clip-path="url(#pe11d627912)" style="fill: none; stroke: #444444; stroke-width: 0.8; stroke-linecap: square"/>
   </g>
   <g id="patch_27">
    <path d="M 38.743209 316.995551 
L 38.743209 52.925408 
" style="fill: none; stroke: #000000; stroke-width: 0.8; stroke-linejoin: miter; stroke-linecap: square"/>
   </g>
   <g id="patch_28">
    <path d="M 434.808 316.995551 
L 434.808 52.925408 
" style="fill: none; stroke: #000000; stroke-width: 0.8; stroke-linejoin: miter; stroke-linecap: square"/>
   </g>
   <g id="patch_29">
    <path d="M 38.743209 316.995551 
L 434.808 316.995551 
" style="fill: none; stroke: #000000; stroke-width: 0.8; stroke-linejoin: miter; stroke-linecap: square"/>
   </g>
   <g id="patch_30">
    <path d="M 38.743209 52.925408 
L 434.808 52.925408 
" style="fill: none; stroke: #000000; stroke-width: 0.8; stroke-linejoin: miter; stroke-linecap: square"/>
   </g>
   <g id="text_15">
    <!-- A  Structure-conditioned substitution compatibility -->
    <g transform="translate(85.164042 46.925408) scale(0.12 -0.12)">
     <defs>
      <path id="DejaVuSans-55" d="M 2631 2963 
Q 2534 3019 2420 3045 
Q 2306 3072 2169 3072 
Q 1681 3072 1420 2755 
Q 1159 2438 1159 1844 
L 1159 0 
L 581 0 
L 581 3500 
L 1159 3500 
L 1159 2956 
Q 1341 3275 1631 3429 
Q 1922 3584 2338 3584 
Q 2397 3584 2469 3576 
Q 2541 3569 2628 3553 
L 2631 2963 
z
" transform="scale(0.015625)"/>
      <path id="DejaVuSans-46" d="M 3122 3366 
L 3122 2828 
Q 2878 2963 2633 3030 
Q 2388 3097 2138 3097 
Q 1578 3097 1268 2742 
Q 959 2388 959 1747 
Q 959 1106 1268 751 
Q 1578 397 2138 397 
Q 2388 397 2633 464 
Q 2878 531 3122 666 
L 3122 134 
Q 2881 22 2623 -34 
Q 2366 -91 2075 -91 
Q 1284 -91 818 406 
Q 353 903 353 1747 
Q 353 2603 823 3093 
Q 1294 3584 2113 3584 
Q 2378 3584 2631 3529 
Q 2884 3475 3122 3366 
z
" transform="scale(0.015625)"/>
      <path id="DejaVuSans-48" d="M 3597 1894 
L 3597 1613 
L 953 1613 
Q 991 1019 1311 708 
Q 1631 397 2203 397 
Q 2534 397 2845 478 
Q 3156 559 3463 722 
L 3463 178 
Q 3153 47 2828 -22 
Q 2503 -91 2169 -91 
Q 1331 -91 842 396 
Q 353 884 353 1716 
Q 353 2575 817 3079 
Q 1281 3584 2069 3584 
Q 2775 3584 3186 3129 
Q 3597 2675 3597 1894 
z
M 3022 2063 
Q 3016 2534 2758 2815 
Q 2500 3097 2075 3097 
Q 1594 3097 1305 2825 
Q 1016 2553 972 2059 
L 3022 2063 
z
" transform="scale(0.015625)"/>
      <path id="DejaVuSans-10" d="M 313 2009 
L 1997 2009 
L 1997 1497 
L 313 1497 
L 313 2009 
z
" transform="scale(0.015625)"/>
      <path id="DejaVuSans-56" d="M 2834 3397 
L 2834 2853 
Q 2591 2978 2328 3040 
Q 2066 3103 1784 3103 
Q 1356 3103 1142 2972 
Q 928 2841 928 2578 
Q 928 2378 1081 2264 
Q 1234 2150 1697 2047 
L 1894 2003 
Q 2506 1872 2764 1633 
Q 3022 1394 3022 966 
Q 3022 478 2636 193 
Q 2250 -91 1575 -91 
Q 1294 -91 989 -36 
Q 684 19 347 128 
L 347 722 
Q 666 556 975 473 
Q 1284 391 1588 391 
Q 1994 391 2212 530 
Q 2431 669 2431 922 
Q 2431 1156 2273 1281 
Q 2116 1406 1581 1522 
L 1381 1569 
Q 847 1681 609 1914 
Q 372 2147 372 2553 
Q 372 3047 722 3315 
Q 1072 3584 1716 3584 
Q 2034 3584 2315 3537 
Q 2597 3491 2834 3397 
z
" transform="scale(0.015625)"/>
      <path id="DejaVuSans-45" d="M 3116 1747 
Q 3116 2381 2855 2742 
Q 2594 3103 2138 3103 
Q 1681 3103 1420 2742 
Q 1159 2381 1159 1747 
Q 1159 1113 1420 752 
Q 1681 391 2138 391 
Q 2594 391 2855 752 
Q 3116 1113 3116 1747 
z
M 1159 2969 
Q 1341 3281 1617 3432 
Q 1894 3584 2278 3584 
Q 2916 3584 3314 3078 
Q 3713 2572 3713 1747 
Q 3713 922 3314 415 
Q 2916 -91 2278 -91 
Q 1894 -91 1617 61 
Q 1341 213 1159 525 
L 1159 0 
L 581 0 
L 581 4863 
L 1159 4863 
L 1159 2969 
z
" transform="scale(0.015625)"/>
      <path id="DejaVuSans-53" d="M 1159 525 
L 1159 -1331 
L 581 -1331 
L 581 3500 
L 1159 3500 
L 1159 2969 
Q 1341 3281 1617 3432 
Q 1894 3584 2278 3584 
Q 2916 3584 3314 3078 
Q 3713 2572 3713 1747 
Q 3713 922 3314 415 
Q 2916 -91 2278 -91 
Q 1894 -91 1617 61 
Q 1341 213 1159 525 
z
M 3116 1747 
Q 3116 2381 2855 2742 
Q 2594 3103 2138 3103 
Q 1681 3103 1420 2742 
Q 1159 2381 1159 1747 
Q 1159 1113 1420 752 
Q 1681 391 2138 391 
Q 2594 391 2855 752 
Q 3116 1113 3116 1747 
z
" transform="scale(0.015625)"/>
      <path id="DejaVuSans-5c" d="M 2059 -325 
Q 1816 -950 1584 -1140 
Q 1353 -1331 966 -1331 
L 506 -1331 
L 506 -850 
L 844 -850 
Q 1081 -850 1212 -737 
Q 1344 -625 1503 -206 
L 1606 56 
L 191 3500 
L 800 3500 
L 1894 763 
L 2988 3500 
L 3597 3500 
L 2059 -325 
z
" transform="scale(0.015625)"/>
     </defs>
     <use xlink:href="#DejaVuSans-24"/>
     <use xlink:href="#DejaVuSans-3" transform="translate(68.40625 0)"/>
     <use xlink:href="#DejaVuSans-3" transform="translate(100.1875 0)"/>
     <use xlink:href="#DejaVuSans-36" transform="translate(131.96875 0)"/>
     <use xlink:href="#DejaVuSans-57" transform="translate(195.453125 0)"/>
     <use xlink:href="#DejaVuSans-55" transform="translate(234.65625 0)"/>
     <use xlink:href="#DejaVuSans-58" transform="translate(275.765625 0)"/>
     <use xlink:href="#DejaVuSans-46" transform="translate(339.140625 0)"/>
     <use xlink:href="#DejaVuSans-57" transform="translate(394.125 0)"/>
     <use xlink:href="#DejaVuSans-58" transform="translate(433.328125 0)"/>
     <use xlink:href="#DejaVuSans-55" transform="translate(496.703125 0)"/>
     <use xlink:href="#DejaVuSans-48" transform="translate(535.609375 0)"/>
     <use xlink:href="#DejaVuSans-10" transform="translate(597.140625 0)"/>
     <use xlink:href="#DejaVuSans-46" transform="translate(633.21875 0)"/>
     <use xlink:href="#DejaVuSans-52" transform="translate(688.203125 0)"/>
     <use xlink:href="#DejaVuSans-51" transform="translate(749.390625 0)"/>
     <use xlink:href="#DejaVuSans-47" transform="translate(812.765625 0)"/>
     <use xlink:href="#DejaVuSans-4c" transform="translate(876.25 0)"/>
     <use xlink:href="#DejaVuSans-57" transform="translate(904.03125 0)"/>
     <use xlink:href="#DejaVuSans-4c" transform="translate(943.234375 0)"/>
     <use xlink:href="#DejaVuSans-52" transform="translate(971.015625 0)"/>
     <use xlink:href="#DejaVuSans-51" transform="translate(1032.203125 0)"/>
     <use xlink:href="#DejaVuSans-48" transform="translate(1095.578125 0)"/>
     <use xlink:href="#DejaVuSans-47" transform="translate(1157.109375 0)"/>
     <use xlink:href="#DejaVuSans-3" transform="translate(1220.59375 0)"/>
     <use xlink:href="#DejaVuSans-56" transform="translate(1252.375 0)"/>
     <use xlink:href="#DejaVuSans-58" transform="translate(1304.46875 0)"/>
     <use xlink:href="#DejaVuSans-45" transform="translate(1367.84375 0)"/>
     <use xlink:href="#DejaVuSans-56" transform="translate(1431.328125 0)"/>
     <use xlink:href="#DejaVuSans-57" transform="translate(1483.421875 0)"/>
     <use xlink:href="#DejaVuSans-4c" transform="translate(1522.625 0)"/>
     <use xlink:href="#DejaVuSans-57" transform="translate(1550.40625 0)"/>
     <use xlink:href="#DejaVuSans-58" transform="translate(1589.609375 0)"/>
     <use xlink:href="#DejaVuSans-57" transform="translate(1652.984375 0)"/>
     <use xlink:href="#DejaVuSans-4c" transform="translate(1692.1875 0)"/>
     <use xlink:href="#DejaVuSans-52" transform="translate(1719.96875 0)"/>
     <use xlink:href="#DejaVuSans-51" transform="translate(1781.15625 0)"/>
     <use xlink:href="#DejaVuSans-3" transform="translate(1844.53125 0)"/>
     <use xlink:href="#DejaVuSans-46" transform="translate(1876.3125 0)"/>
     <use xlink:href="#DejaVuSans-52" transform="translate(1931.296875 0)"/>
     <use xlink:href="#DejaVuSans-50" transform="translate(1992.484375 0)"/>
     <use xlink:href="#DejaVuSans-53" transform="translate(2089.890625 0)"/>
     <use xlink:href="#DejaVuSans-44" transform="translate(2153.375 0)"/>
     <use xlink:href="#DejaVuSans-57" transform="translate(2214.65625 0)"/>
     <use xlink:href="#DejaVuSans-4c" transform="translate(2253.859375 0)"/>
     <use xlink:href="#DejaVuSans-45" transform="translate(2281.640625 0)"/>
     <use xlink:href="#DejaVuSans-4c" transform="translate(2345.125 0)"/>
     <use xlink:href="#DejaVuSans-4f" transform="translate(2372.90625 0)"/>
     <use xlink:href="#DejaVuSans-4c" transform="translate(2400.6875 0)"/>
     <use xlink:href="#DejaVuSans-57" transform="translate(2428.46875 0)"/>
     <use xlink:href="#DejaVuSans-5c" transform="translate(2467.671875 0)"/>
    </g>
   </g>
   <g id="legend_1">
    <g id="patch_31">
     <path d="M 312.34675 283.872426 
L 328.34675 283.872426 
L 328.34675 278.272426 
L 312.34675 278.272426 
z
" style="fill: #4c78a8"/>
    </g>
    <g id="text_16">
     <!-- Experimental VHH only -->
     <g transform="translate(334.74675 283.872426) scale(0.08 -0.08)">
      <defs>
       <path id="DejaVuSans-5b" d="M 3513 3500 
L 2247 1797 
L 3578 0 
L 2900 0 
L 1881 1375 
L 863 0 
L 184 0 
L 1544 1831 
L 300 3500 
L 978 3500 
L 1906 2253 
L 2834 3500 
L 3513 3500 
z
" transform="scale(0.015625)"/>
       <path id="DejaVuSans-2b" d="M 628 4666 
L 1259 4666 
L 1259 2753 
L 3553 2753 
L 3553 4666 
L 4184 4666 
L 4184 0 
L 3553 0 
L 3553 2222 
L 1259 2222 
L 1259 0 
L 628 0 
L 628 4666 
z
" transform="scale(0.015625)"/>
      </defs>
      <use xlink:href="#DejaVuSans-28"/>
      <use xlink:href="#DejaVuSans-5b" transform="translate(63.1875 0)"/>
      <use xlink:href="#DejaVuSans-53" transform="translate(122.375 0)"/>
      <use xlink:href="#DejaVuSans-48" transform="translate(185.859375 0)"/>
      <use xlink:href="#DejaVuSans-55" transform="translate(247.390625 0)"/>
      <use xlink:href="#DejaVuSans-4c" transform="translate(288.5 0)"/>
      <use xlink:href="#DejaVuSans-50" transform="translate(316.28125 0)"/>
      <use xlink:href="#DejaVuSans-48" transform="translate(413.6875 0)"/>
      <use xlink:href="#DejaVuSans-51" transform="translate(475.21875 0)"/>
      <use xlink:href="#DejaVuSans-57" transform="translate(538.59375 0)"/>
      <use xlink:href="#DejaVuSans-44" transform="translate(577.796875 0)"/>
      <use xlink:href="#DejaVuSans-4f" transform="translate(639.078125 0)"/>
      <use xlink:href="#DejaVuSans-3" transform="translate(666.859375 0)"/>
      <use xlink:href="#DejaVuSans-39" transform="translate(698.640625 0)"/>
      <use xlink:href="#DejaVuSans-2b" transform="translate(767.046875 0)"/>
      <use xlink:href="#DejaVuSans-2b" transform="translate(842.25 0)"/>
      <use xlink:href="#DejaVuSans-3" transform="translate(917.453125 0)"/>
      <use xlink:href="#DejaVuSans-52" transform="translate(949.234375 0)"/>
      <use xlink:href="#DejaVuSans-51" transform="translate(1010.421875 0)"/>
      <use xlink:href="#DejaVuSans-4f" transform="translate(1073.796875 0)"/>
      <use xlink:href="#DejaVuSans-5c" transform="translate(1101.578125 0)"/>
     </g>
    </g>
    <g id="patch_32">
     <path d="M 312.34675 295.873051 
L 328.34675 295.873051 
L 328.34675 290.273051 
L 312.34675 290.273051 
z
" style="fill: #f58518"/>
    </g>
    <g id="text_17">
     <!-- Experimental complex -->
     <g transform="translate(334.74675 295.873051) scale(0.08 -0.08)">
      <use xlink:href="#DejaVuSans-28"/>
      <use xlink:href="#DejaVuSans-5b" transform="translate(63.1875 0)"/>
      <use xlink:href="#DejaVuSans-53" transform="translate(122.375 0)"/>
      <use xlink:href="#DejaVuSans-48" transform="translate(185.859375 0)"/>
      <use xlink:href="#DejaVuSans-55" transform="translate(247.390625 0)"/>
      <use xlink:href="#DejaVuSans-4c" transform="translate(288.5 0)"/>
      <use xlink:href="#DejaVuSans-50" transform="translate(316.28125 0)"/>
      <use xlink:href="#DejaVuSans-48" transform="translate(413.6875 0)"/>
      <use xlink:href="#DejaVuSans-51" transform="translate(475.21875 0)"/>
      <use xlink:href="#DejaVuSans-57" transform="translate(538.59375 0)"/>
      <use xlink:href="#DejaVuSans-44" transform="translate(577.796875 0)"/>
      <use xlink:href="#DejaVuSans-4f" transform="translate(639.078125 0)"/>
      <use xlink:href="#DejaVuSans-3" transform="translate(666.859375 0)"/>
      <use xlink:href="#DejaVuSans-46" transform="translate(698.640625 0)"/>
      <use xlink:href="#DejaVuSans-52" transform="translate(753.625 0)"/>
      <use xlink:href="#DejaVuSans-50" transform="translate(814.8125 0)"/>
      <use xlink:href="#DejaVuSans-53" transform="translate(912.21875 0)"/>
      <use xlink:href="#DejaVuSans-4f" transform="translate(975.703125 0)"/>
      <use xlink:href="#DejaVuSans-48" transform="translate(1003.484375 0)"/>
      <use xlink:href="#DejaVuSans-5b" transform="translate(1063.265625 0)"/>
     </g>
    </g>
    <g id="patch_33">
     <path d="M 312.34675 307.873676 
L 328.34675 307.873676 
L 328.34675 302.273676 
L 312.34675 302.273676 
z
" style="fill: #54a24b"/>
    </g>
    <g id="text_18">
     <!-- AF3 VHH -->
     <g transform="translate(334.74675 307.873676) scale(0.08 -0.08)">
      <use xlink:href="#DejaVuSans-24"/>
      <use xlink:href="#DejaVuSans-29" transform="translate(68.40625 0)"/>
      <use xlink:href="#DejaVuSans-16" transform="translate(125.921875 0)"/>
      <use xlink:href="#DejaVuSans-3" transform="translate(189.546875 0)"/>
      <use xlink:href="#DejaVuSans-39" transform="translate(221.328125 0)"/>
      <use xlink:href="#DejaVuSans-2b" transform="translate(289.734375 0)"/>
      <use xlink:href="#DejaVuSans-2b" transform="translate(364.9375 0)"/>
     </g>
    </g>
   </g>
  </g>
  <g id="axes_2">
   <g id="patch_34">
    <path d="M 479.334969 316.995551 
L 875.39976 316.995551 
L 875.39976 52.925408 
L 479.334969 52.925408 
z
" style="fill: #ffffff"/>
   </g>
   <g id="PathCollection_1">
    <path d="M 506.649782 291.70416 
C 507.615382 291.70416 508.541564 291.320523 509.224346 290.637741 
C 509.907128 289.954958 510.290765 289.028777 510.290765 288.063177 
C 510.290765 287.097577 509.907128 286.171395 509.224346 285.488612 
C 508.541564 284.80583 507.615382 284.422193 506.649782 284.422193 
C 505.684182 284.422193 504.758 284.80583 504.075218 285.488612 
C 503.392435 286.171395 503.008798 287.097577 503.008798 288.063177 
C 503.008798 289.028777 503.392435 289.954958 504.075218 290.637741 
C 504.758 291.320523 505.684182 291.70416 506.649782 291.70416 
z
" clip-path="url(#p3ca74e5df7)" style="fill: #72b7b2; stroke: #b22222; stroke-width: 1.2"/>
    <path d="M 725.440388 91.203859 
C 726.405988 91.203859 727.33217 90.820222 728.014952 90.13744 
C 728.697735 89.454657 729.081372 88.528476 729.081372 87.562876 
C 729.081372 86.597276 728.697735 85.671094 728.014952 84.988312 
C 727.33217 84.305529 726.405988 83.921892 725.440388 83.921892 
C 724.474788 83.921892 723.548607 84.305529 722.865824 84.988312 
C 722.183042 85.671094 721.799405 86.597276 721.799405 87.562876 
C 721.799405 88.528476 722.183042 89.454657 722.865824 90.13744 
C 723.548607 90.820222 724.474788 91.203859 725.440388 91.203859 
z
" clip-path="url(#p3ca74e5df7)" style="fill: #72b7b2; stroke: #b22222; stroke-width: 1.2"/>
    <path d="M 669.780612 214.224935 
C 670.836886 214.224935 671.85004 213.805273 672.596939 213.058374 
C 673.343837 212.311476 673.763499 211.298322 673.763499 210.242048 
C 673.763499 209.185774 673.343837 208.17262 672.596939 207.425721 
C 671.85004 206.678823 670.836886 206.259161 669.780612 206.259161 
C 668.724338 206.259161 667.711184 206.678823 666.964286 207.425721 
C 666.217387 208.17262 665.797725 209.185774 665.797725 210.242048 
C 665.797725 211.298322 666.217387 212.311476 666.964286 213.058374 
C 667.711184 213.805273 668.724338 214.224935 669.780612 214.224935 
z
" clip-path="url(#p3ca74e5df7)" style="fill: #72b7b2; stroke: #b22222; stroke-width: 1.2"/>
    <path d="M 640.607161 219.457666 
C 641.648109 219.457666 642.646562 219.044093 643.382623 218.308032 
C 644.118684 217.571971 644.532257 216.573518 644.532257 215.53257 
C 644.532257 214.491622 644.118684 213.493169 643.382623 212.757108 
C 642.646562 212.021047 641.648109 211.607474 640.607161 211.607474 
C 639.566213 211.607474 638.56776 212.021047 637.831699 212.757108 
C 637.095638 213.493169 636.682065 214.491622 636.682065 215.53257 
C 636.682065 216.573518 637.095638 217.571971 637.831699 218.308032 
C 638.56776 219.044093 639.566213 219.457666 640.607161 219.457666 
z
" clip-path="url(#p3ca74e5df7)" style="fill: #72b7b2; stroke: #b22222; stroke-width: 1.2"/>
    <path d="M 616.025045 74.927754 
C 617.030327 74.927754 617.994571 74.528351 618.705413 73.81751 
C 619.416255 73.106668 619.815658 72.142424 619.815658 71.137142 
C 619.815658 70.131859 619.416255 69.167615 618.705413 68.456774 
C 617.994571 67.745932 617.030327 67.346529 616.025045 67.346529 
C 615.019762 67.346529 614.055519 67.745932 613.344677 68.456774 
C 612.633835 69.167615 612.234432 70.131859 612.234432 71.137142 
C 612.234432 72.142424 612.633835 73.106668 613.344677 73.81751 
C 614.055519 74.528351 615.019762 74.927754 616.025045 74.927754 
z
" clip-path="url(#p3ca74e5df7)" style="fill: #72b7b2; stroke: #b22222; stroke-width: 1.2"/>
    <path d="M 744.372458 94.247287 
C 745.37774 94.247287 746.341984 93.847884 747.052826 93.137042 
C 747.763668 92.4262 748.163071 91.461957 748.163071 90.456674 
C 748.163071 89.451392 747.763668 88.487148 747.052826 87.776306 
C 746.341984 87.065464 745.37774 86.666062 744.372458 86.666062 
C 743.367176 86.666062 742.402932 87.065464 741.69209 87.776306 
C 740.981248 88.487148 740.581845 89.451392 740.581845 90.456674 
C 740.581845 91.461957 740.981248 92.4262 741.69209 93.137042 
C 742.402932 93.847884 743.367176 94.247287 744.372458 94.247287 
z
" clip-path="url(#p3ca74e5df7)" style="fill: #72b7b2; stroke: #b22222; stroke-width: 1.2"/>
    <path d="M 640.633664 126.561107 
C 641.64764 126.561107 642.620222 126.15825 643.337211 125.441261 
C 644.0542 124.724272 644.457057 123.751689 644.457057 122.737713 
C 644.457057 121.723738 644.0542 120.751155 643.337211 120.034166 
C 642.620222 119.317177 641.64764 118.91432 640.633664 118.91432 
C 639.619688 118.91432 638.647106 119.317177 637.930117 120.034166 
C 637.213127 120.751155 636.810271 121.723738 636.810271 122.737713 
C 636.810271 123.751689 637.213127 124.724272 637.930117 125.441261 
C 638.647106 126.15825 639.619688 126.561107 640.633664 126.561107 
z
" clip-path="url(#p3ca74e5df7)" style="fill: #72b7b2; stroke: #b22222; stroke-width: 1.2"/>
    <path d="M 650.687106 265.744352 
C 651.7051 265.744352 652.681536 265.339898 653.401366 264.620068 
C 654.121197 263.900238 654.52565 262.923801 654.52565 261.905807 
C 654.52565 260.887813 654.121197 259.911377 653.401366 259.191547 
C 652.681536 258.471716 651.7051 258.067263 650.687106 258.067263 
C 649.669112 258.067263 648.692675 258.471716 647.972845 259.191547 
C 647.253015 259.911377 646.848561 260.887813 646.848561 261.905807 
C 646.848561 262.923801 647.253015 263.900238 647.972845 264.620068 
C 648.692675 265.339898 649.669112 265.744352 650.687106 265.744352 
z
" clip-path="url(#p3ca74e5df7)" style="fill: #72b7b2; stroke: #b22222; stroke-width: 1.2"/>
   </g>
   <g id="matplotlib.axis_3">
    <g id="xtick_9">
     <g id="line2d_15">
      <g>
       <use xlink:href="#m5991ec2632" x="537.182415" y="316.995551" style="stroke: #000000; stroke-width: 0.8"/>
      </g>
     </g>
     <g id="text_19">
      <!-- −4 -->
      <g transform="translate(529.811321 331.593207) scale(0.1 -0.1)">
       <use xlink:href="#DejaVuSans-c9c"/>
       <use xlink:href="#DejaVuSans-17" transform="translate(83.796875 0)"/>
      </g>
     </g>
    </g>
    <g id="xtick_10">
     <g id="line2d_16">
      <g>
       <use xlink:href="#m5991ec2632" x="617.733785" y="316.995551" style="stroke: #000000; stroke-width: 0.8"/>
      </g>
     </g>
     <g id="text_20">
      <!-- −2 -->
      <g transform="translate(610.362692 331.593207) scale(0.1 -0.1)">
       <use xlink:href="#DejaVuSans-c9c"/>
       <use xlink:href="#DejaVuSans-15" transform="translate(83.796875 0)"/>
      </g>
     </g>
    </g>
    <g id="xtick_11">
     <g id="line2d_17">
      <g>
       <use xlink:href="#m5991ec2632" x="698.285156" y="316.995551" style="stroke: #000000; stroke-width: 0.8"/>
      </g>
     </g>
     <g id="text_21">
      <!-- 0 -->
      <g transform="translate(695.103906 331.593207) scale(0.1 -0.1)">
       <use xlink:href="#DejaVuSans-13"/>
      </g>
     </g>
    </g>
    <g id="xtick_12">
     <g id="line2d_18">
      <g>
       <use xlink:href="#m5991ec2632" x="778.836526" y="316.995551" style="stroke: #000000; stroke-width: 0.8"/>
      </g>
     </g>
     <g id="text_22">
      <!-- 2 -->
      <g transform="translate(775.655276 331.593207) scale(0.1 -0.1)">
       <use xlink:href="#DejaVuSans-15"/>
      </g>
     </g>
    </g>
    <g id="xtick_13">
     <g id="line2d_19">
      <g>
       <use xlink:href="#m5991ec2632" x="859.387896" y="316.995551" style="stroke: #000000; stroke-width: 0.8"/>
      </g>
     </g>
     <g id="text_23">
      <!-- 4 -->
      <g transform="translate(856.206646 331.593207) scale(0.1 -0.1)">
       <use xlink:href="#DejaVuSans-17"/>
      </g>
     </g>
    </g>
    <g id="text_24">
     <!-- Experimental complex Δ log P -->
     <g transform="translate(602.419708 345.593988) scale(0.1 -0.1)">
      <use xlink:href="#DejaVuSans-28"/>
      <use xlink:href="#DejaVuSans-5b" transform="translate(63.1875 0)"/>
      <use xlink:href="#DejaVuSans-53" transform="translate(122.375 0)"/>
      <use xlink:href="#DejaVuSans-48" transform="translate(185.859375 0)"/>
      <use xlink:href="#DejaVuSans-55" transform="translate(247.390625 0)"/>
      <use xlink:href="#DejaVuSans-4c" transform="translate(288.5 0)"/>
      <use xlink:href="#DejaVuSans-50" transform="translate(316.28125 0)"/>
      <use xlink:href="#DejaVuSans-48" transform="translate(413.6875 0)"/>
      <use xlink:href="#DejaVuSans-51" transform="translate(475.21875 0)"/>
      <use xlink:href="#DejaVuSans-57" transform="translate(538.59375 0)"/>
      <use xlink:href="#DejaVuSans-44" transform="translate(577.796875 0)"/>
      <use xlink:href="#DejaVuSans-4f" transform="translate(639.078125 0)"/>
      <use xlink:href="#DejaVuSans-3" transform="translate(666.859375 0)"/>
      <use xlink:href="#DejaVuSans-46" transform="translate(698.640625 0)"/>
      <use xlink:href="#DejaVuSans-52" transform="translate(753.625 0)"/>
      <use xlink:href="#DejaVuSans-50" transform="translate(814.8125 0)"/>
      <use xlink:href="#DejaVuSans-53" transform="translate(912.21875 0)"/>
      <use xlink:href="#DejaVuSans-4f" transform="translate(975.703125 0)"/>
      <use xlink:href="#DejaVuSans-48" transform="translate(1003.484375 0)"/>
      <use xlink:href="#DejaVuSans-5b" transform="translate(1063.265625 0)"/>
      <use xlink:href="#DejaVuSans-3" transform="translate(1122.453125 0)"/>
      <use xlink:href="#DejaVuSans-329" transform="translate(1154.234375 0)"/>
      <use xlink:href="#DejaVuSans-3" transform="translate(1222.640625 0)"/>
      <use xlink:href="#DejaVuSans-4f" transform="translate(1254.421875 0)"/>
      <use xlink:href="#DejaVuSans-52" transform="translate(1282.203125 0)"/>
      <use xlink:href="#DejaVuSans-4a" transform="translate(1343.390625 0)"/>
      <use xlink:href="#DejaVuSans-3" transform="translate(1406.875 0)"/>
      <use xlink:href="#DejaVuSans-33" transform="translate(1438.65625 0)"/>
     </g>
    </g>
   </g>
   <g id="matplotlib.axis_4">
    <g id="ytick_6">
     <g id="line2d_20">
      <g>
       <use xlink:href="#m0f2575f0b3" x="479.334969" y="278.426651" style="stroke: #000000; stroke-width: 0.8"/>
      </g>
     </g>
     <g id="text_25">
      <!-- −4 -->
      <g transform="translate(457.592781 282.225479) scale(0.1 -0.1)">
       <use xlink:href="#DejaVuSans-c9c"/>
       <use xlink:href="#DejaVuSans-17" transform="translate(83.796875 0)"/>
      </g>
     </g>
    </g>
    <g id="ytick_7">
     <g id="line2d_21">
      <g>
       <use xlink:href="#m0f2575f0b3" x="479.334969" y="224.720256" style="stroke: #000000; stroke-width: 0.8"/>
      </g>
     </g>
     <g id="text_26">
      <!-- −2 -->
      <g transform="translate(457.592781 228.519084) scale(0.1 -0.1)">
       <use xlink:href="#DejaVuSans-c9c"/>
       <use xlink:href="#DejaVuSans-15" transform="translate(83.796875 0)"/>
      </g>
     </g>
    </g>
    <g id="ytick_8">
     <g id="line2d_22">
      <g>
       <use xlink:href="#m0f2575f0b3" x="479.334969" y="171.013862" style="stroke: #000000; stroke-width: 0.8"/>
      </g>
     </g>
     <g id="text_27">
      <!-- 0 -->
      <g transform="translate(465.972469 174.81269) scale(0.1 -0.1)">
       <use xlink:href="#DejaVuSans-13"/>
      </g>
     </g>
    </g>
    <g id="ytick_9">
     <g id="line2d_23">
      <g>
       <use xlink:href="#m0f2575f0b3" x="479.334969" y="117.307467" style="stroke: #000000; stroke-width: 0.8"/>
      </g>
     </g>
     <g id="text_28">
      <!-- 2 -->
      <g transform="translate(465.972469 121.106295) scale(0.1 -0.1)">
       <use xlink:href="#DejaVuSans-15"/>
      </g>
     </g>
    </g>
    <g id="ytick_10">
     <g id="line2d_24">
      <g>
       <use xlink:href="#m0f2575f0b3" x="479.334969" y="63.601073" style="stroke: #000000; stroke-width: 0.8"/>
      </g>
     </g>
     <g id="text_29">
      <!-- 4 -->
      <g transform="translate(465.972469 67.399901) scale(0.1 -0.1)">
       <use xlink:href="#DejaVuSans-17"/>
      </g>
     </g>
    </g>
    <g id="text_30">
     <!-- AF3 VHH Δ log P -->
     <g transform="translate(451.190437 225.79251) rotate(-90) scale(0.1 -0.1)">
      <use xlink:href="#DejaVuSans-24"/>
      <use xlink:href="#DejaVuSans-29" transform="translate(68.40625 0)"/>
      <use xlink:href="#DejaVuSans-16" transform="translate(125.921875 0)"/>
      <use xlink:href="#DejaVuSans-3" transform="translate(189.546875 0)"/>
      <use xlink:href="#DejaVuSans-39" transform="translate(221.328125 0)"/>
      <use xlink:href="#DejaVuSans-2b" transform="translate(289.734375 0)"/>
      <use xlink:href="#DejaVuSans-2b" transform="translate(364.9375 0)"/>
      <use xlink:href="#DejaVuSans-3" transform="translate(440.140625 0)"/>
      <use xlink:href="#DejaVuSans-329" transform="translate(471.921875 0)"/>
      <use xlink:href="#DejaVuSans-3" transform="translate(540.328125 0)"/>
      <use xlink:href="#DejaVuSans-4f" transform="translate(572.109375 0)"/>
      <use xlink:href="#DejaVuSans-52" transform="translate(599.890625 0)"/>
      <use xlink:href="#DejaVuSans-4a" transform="translate(661.078125 0)"/>
      <use xlink:href="#DejaVuSans-3" transform="translate(724.5625 0)"/>
      <use xlink:href="#DejaVuSans-33" transform="translate(756.34375 0)"/>
     </g>
    </g>
   </g>
   <g id="line2d_25">
    <path d="M 479.334969 316.995551 
L 875.39976 52.925407 
" clip-path="url(#p3ca74e5df7)" style="fill: none; stroke-dasharray: 2.96,1.28; stroke-dashoffset: 0; stroke: #777777; stroke-width: 0.8"/>
   </g>
   <g id="line2d_26">
    <path d="M 479.334969 171.013862 
L 875.39976 171.013862 
" clip-path="url(#p3ca74e5df7)" style="fill: none; stroke: #bbbbbb; stroke-width: 0.7; stroke-linecap: square"/>
   </g>
   <g id="line2d_27">
    <path d="M 698.285156 316.995551 
L 698.285156 52.925408 
" clip-path="url(#p3ca74e5df7)" style="fill: none; stroke: #bbbbbb; stroke-width: 0.7; stroke-linecap: square"/>
   </g>
   <g id="patch_35">
    <path d="M 479.334969 316.995551 
L 479.334969 52.925407 
" style="fill: none; stroke: #000000; stroke-width: 0.8; stroke-linejoin: miter; stroke-linecap: square"/>
   </g>
   <g id="patch_36">
    <path d="M 875.39976 316.995551 
L 875.39976 52.925407 
" style="fill: none; stroke: #000000; stroke-width: 0.8; stroke-linejoin: miter; stroke-linecap: square"/>
   </g>
   <g id="patch_37">
    <path d="M 479.334969 316.995551 
L 875.39976 316.995551 
" style="fill: none; stroke: #000000; stroke-width: 0.8; stroke-linejoin: miter; stroke-linecap: square"/>
   </g>
   <g id="patch_38">
    <path d="M 479.334969 52.925408 
L 875.39976 52.925408 
" style="fill: none; stroke: #000000; stroke-width: 0.8; stroke-linejoin: miter; stroke-linecap: square"/>
   </g>
   <g id="text_31">
    <!-- R45C -->
    <g transform="translate(510.649782 284.063177) scale(0.08 -0.08)">
     <use xlink:href="#DejaVuSans-35"/>
     <use xlink:href="#DejaVuSans-17" transform="translate(69.484375 0)"/>
     <use xlink:href="#DejaVuSans-18" transform="translate(133.109375 0)"/>
     <use xlink:href="#DejaVuSans-26" transform="translate(196.734375 0)"/>
    </g>
   </g>
   <g id="text_32">
    <!-- R45V -->
    <g transform="translate(729.440388 83.562876) scale(0.08 -0.08)">
     <use xlink:href="#DejaVuSans-35"/>
     <use xlink:href="#DejaVuSans-17" transform="translate(69.484375 0)"/>
     <use xlink:href="#DejaVuSans-18" transform="translate(133.109375 0)"/>
     <use xlink:href="#DejaVuSans-39" transform="translate(196.734375 0)"/>
    </g>
   </g>
   <g id="text_33">
    <!-- D101W -->
    <g transform="translate(673.780612 206.242048) scale(0.08 -0.08)">
     <use xlink:href="#DejaVuSans-27"/>
     <use xlink:href="#DejaVuSans-14" transform="translate(77 0)"/>
     <use xlink:href="#DejaVuSans-13" transform="translate(140.625 0)"/>
     <use xlink:href="#DejaVuSans-14" transform="translate(204.25 0)"/>
     <use xlink:href="#DejaVuSans-3a" transform="translate(267.875 0)"/>
    </g>
   </g>
   <g id="text_34">
    <!-- I103W -->
    <g transform="translate(644.607161 211.53257) scale(0.08 -0.08)">
     <use xlink:href="#DejaVuSans-2c"/>
     <use xlink:href="#DejaVuSans-14" transform="translate(29.5 0)"/>
     <use xlink:href="#DejaVuSans-13" transform="translate(93.125 0)"/>
     <use xlink:href="#DejaVuSans-16" transform="translate(156.75 0)"/>
     <use xlink:href="#DejaVuSans-3a" transform="translate(220.375 0)"/>
    </g>
   </g>
   <g id="text_35">
    <!-- E105F -->
    <g transform="translate(620.025045 67.137142) scale(0.08 -0.08)">
     <use xlink:href="#DejaVuSans-28"/>
     <use xlink:href="#DejaVuSans-14" transform="translate(63.1875 0)"/>
     <use xlink:href="#DejaVuSans-13" transform="translate(126.8125 0)"/>
     <use xlink:href="#DejaVuSans-18" transform="translate(190.4375 0)"/>
     <use xlink:href="#DejaVuSans-29" transform="translate(254.0625 0)"/>
    </g>
   </g>
   <g id="text_36">
    <!-- E105L -->
    <g transform="translate(748.372458 86.456674) scale(0.08 -0.08)">
     <use xlink:href="#DejaVuSans-28"/>
     <use xlink:href="#DejaVuSans-14" transform="translate(63.1875 0)"/>
     <use xlink:href="#DejaVuSans-13" transform="translate(126.8125 0)"/>
     <use xlink:href="#DejaVuSans-18" transform="translate(190.4375 0)"/>
     <use xlink:href="#DejaVuSans-2f" transform="translate(254.0625 0)"/>
    </g>
   </g>
   <g id="text_37">
    <!-- N107A -->
    <g transform="translate(644.633664 118.737713) scale(0.08 -0.08)">
     <use xlink:href="#DejaVuSans-31"/>
     <use xlink:href="#DejaVuSans-14" transform="translate(74.8125 0)"/>
     <use xlink:href="#DejaVuSans-13" transform="translate(138.4375 0)"/>
     <use xlink:href="#DejaVuSans-1a" transform="translate(202.0625 0)"/>
     <use xlink:href="#DejaVuSans-24" transform="translate(265.6875 0)"/>
    </g>
   </g>
   <g id="text_38">
    <!-- S114M -->
    <g transform="translate(654.687106 257.905807) scale(0.08 -0.08)">
     <use xlink:href="#DejaVuSans-36"/>
     <use xlink:href="#DejaVuSans-14" transform="translate(63.484375 0)"/>
     <use xlink:href="#DejaVuSans-14" transform="translate(127.109375 0)"/>
     <use xlink:href="#DejaVuSans-17" transform="translate(190.734375 0)"/>
     <use xlink:href="#DejaVuSans-30" transform="translate(254.359375 0)"/>
    </g>
   </g>
   <g id="text_39">
    <!-- Marker size: experimental-complex perplexity -->
    <g transform="translate(487.256265 299.389304) scale(0.08 -0.08)">
     <defs>
      <path id="DejaVuSans-4e" d="M 581 4863 
L 1159 4863 
L 1159 1991 
L 2875 3500 
L 3609 3500 
L 1753 1863 
L 3688 0 
L 2938 0 
L 1159 1709 
L 1159 0 
L 581 0 
L 581 4863 
z
" transform="scale(0.015625)"/>
      <path id="DejaVuSans-5d" d="M 353 3500 
L 3084 3500 
L 3084 2975 
L 922 459 
L 3084 459 
L 3084 0 
L 275 0 
L 275 525 
L 2438 3041 
L 353 3041 
L 353 3500 
z
" transform="scale(0.015625)"/>
      <path id="DejaVuSans-1d" d="M 750 794 
L 1409 794 
L 1409 0 
L 750 0 
L 750 794 
z
M 750 3309 
L 1409 3309 
L 1409 2516 
L 750 2516 
L 750 3309 
z
" transform="scale(0.015625)"/>
     </defs>
     <use xlink:href="#DejaVuSans-30"/>
     <use xlink:href="#DejaVuSans-44" transform="translate(86.28125 0)"/>
     <use xlink:href="#DejaVuSans-55" transform="translate(147.5625 0)"/>
     <use xlink:href="#DejaVuSans-4e" transform="translate(188.671875 0)"/>
     <use xlink:href="#DejaVuSans-48" transform="translate(243.015625 0)"/>
     <use xlink:href="#DejaVuSans-55" transform="translate(304.546875 0)"/>
     <use xlink:href="#DejaVuSans-3" transform="translate(345.65625 0)"/>
     <use xlink:href="#DejaVuSans-56" transform="translate(377.4375 0)"/>
     <use xlink:href="#DejaVuSans-4c" transform="translate(429.53125 0)"/>
     <use xlink:href="#DejaVuSans-5d" transform="translate(457.3125 0)"/>
     <use xlink:href="#DejaVuSans-48" transform="translate(509.796875 0)"/>
     <use xlink:href="#DejaVuSans-1d" transform="translate(571.328125 0)"/>
     <use xlink:href="#DejaVuSans-3" transform="translate(605.015625 0)"/>
     <use xlink:href="#DejaVuSans-48" transform="translate(636.796875 0)"/>
     <use xlink:href="#DejaVuSans-5b" transform="translate(696.578125 0)"/>
     <use xlink:href="#DejaVuSans-53" transform="translate(755.765625 0)"/>
     <use xlink:href="#DejaVuSans-48" transform="translate(819.25 0)"/>
     <use xlink:href="#DejaVuSans-55" transform="translate(880.78125 0)"/>
     <use xlink:href="#DejaVuSans-4c" transform="translate(921.890625 0)"/>
     <use xlink:href="#DejaVuSans-50" transform="translate(949.671875 0)"/>
     <use xlink:href="#DejaVuSans-48" transform="translate(1047.078125 0)"/>
     <use xlink:href="#DejaVuSans-51" transform="translate(1108.609375 0)"/>
     <use xlink:href="#DejaVuSans-57" transform="translate(1171.984375 0)"/>
     <use xlink:href="#DejaVuSans-44" transform="translate(1211.1875 0)"/>
     <use xlink:href="#DejaVuSans-4f" transform="translate(1272.46875 0)"/>
     <use xlink:href="#DejaVuSans-10" transform="translate(1300.25 0)"/>
     <use xlink:href="#DejaVuSans-46" transform="translate(1336.328125 0)"/>
     <use xlink:href="#DejaVuSans-52" transform="translate(1391.3125 0)"/>
     <use xlink:href="#DejaVuSans-50" transform="translate(1452.5 0)"/>
     <use xlink:href="#DejaVuSans-53" transform="translate(1549.90625 0)"/>
     <use xlink:href="#DejaVuSans-4f" transform="translate(1613.390625 0)"/>
     <use xlink:href="#DejaVuSans-48" transform="translate(1641.171875 0)"/>
     <use xlink:href="#DejaVuSans-5b" transform="translate(1700.953125 0)"/>
     <use xlink:href="#DejaVuSans-3" transform="translate(1760.140625 0)"/>
     <use xlink:href="#DejaVuSans-53" transform="translate(1791.921875 0)"/>
     <use xlink:href="#DejaVuSans-48" transform="translate(1855.40625 0)"/>
     <use xlink:href="#DejaVuSans-55" transform="translate(1916.9375 0)"/>
     <use xlink:href="#DejaVuSans-53" transform="translate(1958.046875 0)"/>
     <use xlink:href="#DejaVuSans-4f" transform="translate(2021.53125 0)"/>
     <use xlink:href="#DejaVuSans-48" transform="translate(2049.3125 0)"/>
     <use xlink:href="#DejaVuSans-5b" transform="translate(2109.09375 0)"/>
     <use xlink:href="#DejaVuSans-4c" transform="translate(2168.28125 0)"/>
     <use xlink:href="#DejaVuSans-57" transform="translate(2196.0625 0)"/>
     <use xlink:href="#DejaVuSans-5c" transform="translate(2235.265625 0)"/>
    </g>
    <!-- Red edge: retained upstream risk flag -->
    <g transform="translate(487.256265 308.991492) scale(0.08 -0.08)">
     <defs>
      <path id="DejaVuSans-13b0" d="M 1831 4863 
L 3431 4863 
L 3431 0 
L 2853 0 
L 2853 4384 
L 1825 4384 
Q 1516 4384 1395 4259 
Q 1275 4134 1275 3809 
L 1275 3500 
L 2222 3500 
L 2222 3053 
L 1275 3053 
L 1275 0 
L 697 0 
L 697 3053 
L 147 3053 
L 147 3500 
L 697 3500 
L 697 3744 
Q 697 4328 969 4595 
Q 1241 4863 1831 4863 
z
" transform="scale(0.015625)"/>
     </defs>
     <use xlink:href="#DejaVuSans-35"/>
     <use xlink:href="#DejaVuSans-48" transform="translate(65 0)"/>
     <use xlink:href="#DejaVuSans-47" transform="translate(126.53125 0)"/>
     <use xlink:href="#DejaVuSans-3" transform="translate(190.015625 0)"/>
     <use xlink:href="#DejaVuSans-48" transform="translate(221.796875 0)"/>
     <use xlink:href="#DejaVuSans-47" transform="translate(283.328125 0)"/>
     <use xlink:href="#DejaVuSans-4a" transform="translate(346.8125 0)"/>
     <use xlink:href="#DejaVuSans-48" transform="translate(410.296875 0)"/>
     <use xlink:href="#DejaVuSans-1d" transform="translate(471.828125 0)"/>
     <use xlink:href="#DejaVuSans-3" transform="translate(505.515625 0)"/>
     <use xlink:href="#DejaVuSans-55" transform="translate(537.296875 0)"/>
     <use xlink:href="#DejaVuSans-48" transform="translate(576.203125 0)"/>
     <use xlink:href="#DejaVuSans-57" transform="translate(637.734375 0)"/>
     <use xlink:href="#DejaVuSans-44" transform="translate(676.9375 0)"/>
     <use xlink:href="#DejaVuSans-4c" transform="translate(738.21875 0)"/>
     <use xlink:href="#DejaVuSans-51" transform="translate(766 0)"/>
     <use xlink:href="#DejaVuSans-48" transform="translate(829.375 0)"/>
     <use xlink:href="#DejaVuSans-47" transform="translate(890.90625 0)"/>
     <use xlink:href="#DejaVuSans-3" transform="translate(954.390625 0)"/>
     <use xlink:href="#DejaVuSans-58" transform="translate(986.171875 0)"/>
     <use xlink:href="#DejaVuSans-53" transform="translate(1049.546875 0)"/>
     <use xlink:href="#DejaVuSans-56" transform="translate(1113.03125 0)"/>
     <use xlink:href="#DejaVuSans-57" transform="translate(1165.125 0)"/>
     <use xlink:href="#DejaVuSans-55" transform="translate(1204.328125 0)"/>
     <use xlink:href="#DejaVuSans-48" transform="translate(1243.234375 0)"/>
     <use xlink:href="#DejaVuSans-44" transform="translate(1304.765625 0)"/>
     <use xlink:href="#DejaVuSans-50" transform="translate(1366.046875 0)"/>
     <use xlink:href="#DejaVuSans-3" transform="translate(1463.453125 0)"/>
     <use xlink:href="#DejaVuSans-55" transform="translate(1495.234375 0)"/>
     <use xlink:href="#DejaVuSans-4c" transform="translate(1536.34375 0)"/>
     <use xlink:href="#DejaVuSans-56" transform="translate(1564.125 0)"/>
     <use xlink:href="#DejaVuSans-4e" transform="translate(1616.21875 0)"/>
     <use xlink:href="#DejaVuSans-3" transform="translate(1674.125 0)"/>
     <use xlink:href="#DejaVuSans-13b0" transform="translate(1705.90625 0)"/>
     <use xlink:href="#DejaVuSans-44" transform="translate(1768.890625 0)"/>
     <use xlink:href="#DejaVuSans-4a" transform="translate(1830.171875 0)"/>
    </g>
   </g>
   <g id="text_40">
    <!-- B  Conformation/context sensitivity -->
    <g transform="translate(571.517989 46.925408) scale(0.12 -0.12)">
     <defs>
      <path id="DejaVuSans-25" d="M 1259 2228 
L 1259 519 
L 2272 519 
Q 2781 519 3026 730 
Q 3272 941 3272 1375 
Q 3272 1813 3026 2020 
Q 2781 2228 2272 2228 
L 1259 2228 
z
M 1259 4147 
L 1259 2741 
L 2194 2741 
Q 2656 2741 2882 2914 
Q 3109 3088 3109 3444 
Q 3109 3797 2882 3972 
Q 2656 4147 2194 4147 
L 1259 4147 
z
M 628 4666 
L 2241 4666 
Q 2963 4666 3353 4366 
Q 3744 4066 3744 3513 
Q 3744 3084 3544 2831 
Q 3344 2578 2956 2516 
Q 3422 2416 3680 2098 
Q 3938 1781 3938 1306 
Q 3938 681 3513 340 
Q 3088 0 2303 0 
L 628 0 
L 628 4666 
z
" transform="scale(0.015625)"/>
      <path id="DejaVuSans-49" d="M 2375 4863 
L 2375 4384 
L 1825 4384 
Q 1516 4384 1395 4259 
Q 1275 4134 1275 3809 
L 1275 3500 
L 2222 3500 
L 2222 3053 
L 1275 3053 
L 1275 0 
L 697 0 
L 697 3053 
L 147 3053 
L 147 3500 
L 697 3500 
L 697 3744 
Q 697 4328 969 4595 
Q 1241 4863 1831 4863 
L 2375 4863 
z
" transform="scale(0.015625)"/>
      <path id="DejaVuSans-12" d="M 1625 4666 
L 2156 4666 
L 531 -594 
L 0 -594 
L 1625 4666 
z
" transform="scale(0.015625)"/>
      <path id="DejaVuSans-59" d="M 191 3500 
L 800 3500 
L 1894 563 
L 2988 3500 
L 3597 3500 
L 2284 0 
L 1503 0 
L 191 3500 
z
" transform="scale(0.015625)"/>
     </defs>
     <use xlink:href="#DejaVuSans-25"/>
     <use xlink:href="#DejaVuSans-3" transform="translate(68.609375 0)"/>
     <use xlink:href="#DejaVuSans-3" transform="translate(100.390625 0)"/>
     <use xlink:href="#DejaVuSans-26" transform="translate(132.171875 0)"/>
     <use xlink:href="#DejaVuSans-52" transform="translate(202 0)"/>
     <use xlink:href="#DejaVuSans-51" transform="translate(263.1875 0)"/>
     <use xlink:href="#DejaVuSans-49" transform="translate(326.5625 0)"/>
     <use xlink:href="#DejaVuSans-52" transform="translate(361.765625 0)"/>
     <use xlink:href="#DejaVuSans-55" transform="translate(422.953125 0)"/>
     <use xlink:href="#DejaVuSans-50" transform="translate(462.3125 0)"/>
     <use xlink:href="#DejaVuSans-44" transform="translate(559.71875 0)"/>
     <use xlink:href="#DejaVuSans-57" transform="translate(621 0)"/>
     <use xlink:href="#DejaVuSans-4c" transform="translate(660.203125 0)"/>
     <use xlink:href="#DejaVuSans-52" transform="translate(687.984375 0)"/>
     <use xlink:href="#DejaVuSans-51" transform="translate(749.171875 0)"/>
     <use xlink:href="#DejaVuSans-12" transform="translate(812.546875 0)"/>
     <use xlink:href="#DejaVuSans-46" transform="translate(846.234375 0)"/>
     <use xlink:href="#DejaVuSans-52" transform="translate(901.21875 0)"/>
     <use xlink:href="#DejaVuSans-51" transform="translate(962.40625 0)"/>
     <use xlink:href="#DejaVuSans-57" transform="translate(1025.78125 0)"/>
     <use xlink:href="#DejaVuSans-48" transform="translate(1064.984375 0)"/>
     <use xlink:href="#DejaVuSans-5b" transform="translate(1124.765625 0)"/>
     <use xlink:href="#DejaVuSans-57" transform="translate(1183.953125 0)"/>
     <use xlink:href="#DejaVuSans-3" transform="translate(1223.15625 0)"/>
     <use xlink:href="#DejaVuSans-56" transform="translate(1254.9375 0)"/>
     <use xlink:href="#DejaVuSans-48" transform="translate(1307.03125 0)"/>
     <use xlink:href="#DejaVuSans-51" transform="translate(1368.5625 0)"/>
     <use xlink:href="#DejaVuSans-56" transform="translate(1431.9375 0)"/>
     <use xlink:href="#DejaVuSans-4c" transform="translate(1484.03125 0)"/>
     <use xlink:href="#DejaVuSans-57" transform="translate(1511.8125 0)"/>
     <use xlink:href="#DejaVuSans-4c" transform="translate(1551.015625 0)"/>
     <use xlink:href="#DejaVuSans-59" transform="translate(1578.796875 0)"/>
     <use xlink:href="#DejaVuSans-4c" transform="translate(1637.984375 0)"/>
     <use xlink:href="#DejaVuSans-57" transform="translate(1665.765625 0)"/>
     <use xlink:href="#DejaVuSans-5c" transform="translate(1704.96875 0)"/>
    </g>
   </g>
  </g>
  <g id="text_41">
   <!-- Nb252 AntiFold minimal validation -->
   <g transform="translate(335.709375 13.319537) scale(0.12 -0.12)">
    <use xlink:href="#DejaVuSans-31"/>
    <use xlink:href="#DejaVuSans-45" transform="translate(74.8125 0)"/>
    <use xlink:href="#DejaVuSans-15" transform="translate(138.296875 0)"/>
    <use xlink:href="#DejaVuSans-18" transform="translate(201.921875 0)"/>
    <use xlink:href="#DejaVuSans-15" transform="translate(265.546875 0)"/>
    <use xlink:href="#DejaVuSans-3" transform="translate(329.171875 0)"/>
    <use xlink:href="#DejaVuSans-24" transform="translate(360.953125 0)"/>
    <use xlink:href="#DejaVuSans-51" transform="translate(429.359375 0)"/>
    <use xlink:href="#DejaVuSans-57" transform="translate(492.734375 0)"/>
    <use xlink:href="#DejaVuSans-4c" transform="translate(531.9375 0)"/>
    <use xlink:href="#DejaVuSans-29" transform="translate(559.71875 0)"/>
    <use xlink:href="#DejaVuSans-52" transform="translate(613.671875 0)"/>
    <use xlink:href="#DejaVuSans-4f" transform="translate(674.859375 0)"/>
    <use xlink:href="#DejaVuSans-47" transform="translate(702.640625 0)"/>
    <use xlink:href="#DejaVuSans-3" transform="translate(766.125 0)"/>
    <use xlink:href="#DejaVuSans-50" transform="translate(797.90625 0)"/>
    <use xlink:href="#DejaVuSans-4c" transform="translate(895.3125 0)"/>
    <use xlink:href="#DejaVuSans-51" transform="translate(923.09375 0)"/>
    <use xlink:href="#DejaVuSans-4c" transform="translate(986.46875 0)"/>
    <use xlink:href="#DejaVuSans-50" transform="translate(1014.25 0)"/>
    <use xlink:href="#DejaVuSans-44" transform="translate(1111.65625 0)"/>
    <use xlink:href="#DejaVuSans-4f" transform="translate(1172.9375 0)"/>
    <use xlink:href="#DejaVuSans-3" transform="translate(1200.71875 0)"/>
    <use xlink:href="#DejaVuSans-59" transform="translate(1232.5 0)"/>
    <use xlink:href="#DejaVuSans-44" transform="translate(1291.6875 0)"/>
    <use xlink:href="#DejaVuSans-4f" transform="translate(1352.96875 0)"/>
    <use xlink:href="#DejaVuSans-4c" transform="translate(1380.75 0)"/>
    <use xlink:href="#DejaVuSans-47" transform="translate(1408.53125 0)"/>
    <use xlink:href="#DejaVuSans-44" transform="translate(1472.015625 0)"/>
    <use xlink:href="#DejaVuSans-57" transform="translate(1533.296875 0)"/>
    <use xlink:href="#DejaVuSans-4c" transform="translate(1572.5 0)"/>
    <use xlink:href="#DejaVuSans-52" transform="translate(1600.28125 0)"/>
    <use xlink:href="#DejaVuSans-51" transform="translate(1661.46875 0)"/>
   </g>
   <!-- Compatibility signal only; not affinity, expression, yield, Tm, or experimental evidence -->
   <g transform="translate(180.032812 27.722818) scale(0.12 -0.12)">
    <defs>
     <path id="DejaVuSans-1e" d="M 750 3309 
L 1409 3309 
L 1409 2516 
L 750 2516 
L 750 3309 
z
M 750 794 
L 1409 794 
L 1409 256 
L 897 -744 
L 494 -744 
L 750 256 
L 750 794 
z
" transform="scale(0.015625)"/>
     <path id="DejaVuSans-13b1" d="M 2375 4863 
L 2375 4384 
L 1825 4384 
Q 1516 4384 1394 4259 
Q 1275 4134 1275 3809 
L 1275 3500 
L 2853 3500 
L 2853 3744 
Q 2853 4328 3125 4594 
Q 3213 4681 3334 4741 
Q 3578 4863 3988 4863 
L 4531 4863 
L 4531 4384 
L 3981 4384 
Q 3672 4384 3551 4259 
Q 3431 4134 3431 3809 
L 3431 3500 
L 5588 3500 
L 5588 0 
L 5009 0 
L 5009 3053 
L 3431 3053 
L 3431 0 
L 2853 0 
L 2853 3053 
L 1275 3053 
L 1275 0 
L 697 0 
L 697 3053 
L 147 3053 
L 147 3500 
L 697 3500 
L 697 3744 
Q 697 4328 969 4595 
Q 1241 4863 1831 4863 
L 2375 4863 
z
M 5009 4856 
L 5588 4856 
L 5588 4128 
L 5009 4128 
L 5009 4856 
z
" transform="scale(0.015625)"/>
    </defs>
    <use xlink:href="#DejaVuSans-26"/>
    <use xlink:href="#DejaVuSans-52" transform="translate(69.828125 0)"/>
    <use xlink:href="#DejaVuSans-50" transform="translate(131.015625 0)"/>
    <use xlink:href="#DejaVuSans-53" transform="translate(228.421875 0)"/>
    <use xlink:href="#DejaVuSans-44" transform="translate(291.90625 0)"/>
    <use xlink:href="#DejaVuSans-57" transform="translate(353.1875 0)"/>
    <use xlink:href="#DejaVuSans-4c" transform="translate(392.390625 0)"/>
    <use xlink:href="#DejaVuSans-45" transform="translate(420.171875 0)"/>
    <use xlink:href="#DejaVuSans-4c" transform="translate(483.65625 0)"/>
    <use xlink:href="#DejaVuSans-4f" transform="translate(511.4375 0)"/>
    <use xlink:href="#DejaVuSans-4c" transform="translate(539.21875 0)"/>
    <use xlink:href="#DejaVuSans-57" transform="translate(567 0)"/>
    <use xlink:href="#DejaVuSans-5c" transform="translate(606.203125 0)"/>
    <use xlink:href="#DejaVuSans-3" transform="translate(665.390625 0)"/>
    <use xlink:href="#DejaVuSans-56" transform="translate(697.171875 0)"/>
    <use xlink:href="#DejaVuSans-4c" transform="translate(749.265625 0)"/>
    <use xlink:href="#DejaVuSans-4a" transform="translate(777.046875 0)"/>
    <use xlink:href="#DejaVuSans-51" transform="translate(840.53125 0)"/>
    <use xlink:href="#DejaVuSans-44" transform="translate(903.90625 0)"/>
    <use xlink:href="#DejaVuSans-4f" transform="translate(965.1875 0)"/>
    <use xlink:href="#DejaVuSans-3" transform="translate(992.96875 0)"/>
    <use xlink:href="#DejaVuSans-52" transform="translate(1024.75 0)"/>
    <use xlink:href="#DejaVuSans-51" transform="translate(1085.9375 0)"/>
    <use xlink:href="#DejaVuSans-4f" transform="translate(1149.3125 0)"/>
    <use xlink:href="#DejaVuSans-5c" transform="translate(1177.09375 0)"/>
    <use xlink:href="#DejaVuSans-1e" transform="translate(1236.28125 0)"/>
    <use xlink:href="#DejaVuSans-3" transform="translate(1269.96875 0)"/>
    <use xlink:href="#DejaVuSans-51" transform="translate(1301.75 0)"/>
    <use xlink:href="#DejaVuSans-52" transform="translate(1365.125 0)"/>
    <use xlink:href="#DejaVuSans-57" transform="translate(1426.3125 0)"/>
    <use xlink:href="#DejaVuSans-3" transform="translate(1465.515625 0)"/>
    <use xlink:href="#DejaVuSans-44" transform="translate(1497.296875 0)"/>
    <use xlink:href="#DejaVuSans-13b1" transform="translate(1558.578125 0)"/>
    <use xlink:href="#DejaVuSans-51" transform="translate(1655.265625 0)"/>
    <use xlink:href="#DejaVuSans-4c" transform="translate(1718.640625 0)"/>
    <use xlink:href="#DejaVuSans-57" transform="translate(1746.421875 0)"/>
    <use xlink:href="#DejaVuSans-5c" transform="translate(1785.625 0)"/>
    <use xlink:href="#DejaVuSans-f" transform="translate(1844.8125 0)"/>
    <use xlink:href="#DejaVuSans-3" transform="translate(1876.59375 0)"/>
    <use xlink:href="#DejaVuSans-48" transform="translate(1908.375 0)"/>
    <use xlink:href="#DejaVuSans-5b" transform="translate(1968.15625 0)"/>
    <use xlink:href="#DejaVuSans-53" transform="translate(2027.34375 0)"/>
    <use xlink:href="#DejaVuSans-55" transform="translate(2090.828125 0)"/>
    <use xlink:href="#DejaVuSans-48" transform="translate(2129.734375 0)"/>
    <use xlink:href="#DejaVuSans-56" transform="translate(2191.265625 0)"/>
    <use xlink:href="#DejaVuSans-56" transform="translate(2243.359375 0)"/>
    <use xlink:href="#DejaVuSans-4c" transform="translate(2295.453125 0)"/>
    <use xlink:href="#DejaVuSans-52" transform="translate(2323.234375 0)"/>
    <use xlink:href="#DejaVuSans-51" transform="translate(2384.421875 0)"/>
    <use xlink:href="#DejaVuSans-f" transform="translate(2447.796875 0)"/>
    <use xlink:href="#DejaVuSans-3" transform="translate(2479.578125 0)"/>
    <use xlink:href="#DejaVuSans-5c" transform="translate(2511.359375 0)"/>
    <use xlink:href="#DejaVuSans-4c" transform="translate(2570.546875 0)"/>
    <use xlink:href="#DejaVuSans-48" transform="translate(2598.328125 0)"/>
    <use xlink:href="#DejaVuSans-4f" transform="translate(2659.859375 0)"/>
    <use xlink:href="#DejaVuSans-47" transform="translate(2687.640625 0)"/>
    <use xlink:href="#DejaVuSans-f" transform="translate(2751.125 0)"/>
    <use xlink:href="#DejaVuSans-3" transform="translate(2782.90625 0)"/>
    <use xlink:href="#DejaVuSans-37" transform="translate(2814.6875 0)"/>
    <use xlink:href="#DejaVuSans-50" transform="translate(2875.765625 0)"/>
    <use xlink:href="#DejaVuSans-f" transform="translate(2973.171875 0)"/>
    <use xlink:href="#DejaVuSans-3" transform="translate(3004.953125 0)"/>
    <use xlink:href="#DejaVuSans-52" transform="translate(3036.734375 0)"/>
    <use xlink:href="#DejaVuSans-55" transform="translate(3097.921875 0)"/>
    <use xlink:href="#DejaVuSans-3" transform="translate(3139.03125 0)"/>
    <use xlink:href="#DejaVuSans-48" transform="translate(3170.8125 0)"/>
    <use xlink:href="#DejaVuSans-5b" transform="translate(3230.59375 0)"/>
    <use xlink:href="#DejaVuSans-53" transform="translate(3289.78125 0)"/>
    <use xlink:href="#DejaVuSans-48" transform="translate(3353.265625 0)"/>
    <use xlink:href="#DejaVuSans-55" transform="translate(3414.796875 0)"/>
    <use xlink:href="#DejaVuSans-4c" transform="translate(3455.90625 0)"/>
    <use xlink:href="#DejaVuSans-50" transform="translate(3483.6875 0)"/>
    <use xlink:href="#DejaVuSans-48" transform="translate(3581.09375 0)"/>
    <use xlink:href="#DejaVuSans-51" transform="translate(3642.625 0)"/>
    <use xlink:href="#DejaVuSans-57" transform="translate(3706 0)"/>
    <use xlink:href="#DejaVuSans-44" transform="translate(3745.203125 0)"/>
    <use xlink:href="#DejaVuSans-4f" transform="translate(3806.484375 0)"/>
    <use xlink:href="#DejaVuSans-3" transform="translate(3834.265625 0)"/>
    <use xlink:href="#DejaVuSans-48" transform="translate(3866.046875 0)"/>
    <use xlink:href="#DejaVuSans-59" transform="translate(3927.578125 0)"/>
    <use xlink:href="#DejaVuSans-4c" transform="translate(3986.765625 0)"/>
    <use xlink:href="#DejaVuSans-47" transform="translate(4014.546875 0)"/>
    <use xlink:href="#DejaVuSans-48" transform="translate(4078.03125 0)"/>
    <use xlink:href="#DejaVuSans-51" transform="translate(4139.5625 0)"/>
    <use xlink:href="#DejaVuSans-46" transform="translate(4202.9375 0)"/>
    <use xlink:href="#DejaVuSans-48" transform="translate(4257.921875 0)"/>
   </g>
  </g>
 </g>
 <defs>
  <clipPath id="pe11d627912">
   <rect x="38.743209" y="52.925408" width="396.064791" height="264.070143"/>
  </clipPath>
  <clipPath id="p3ca74e5df7">
   <rect x="479.334969" y="52.925408" width="396.064791" height="264.070143"/>
  </clipPath>
 </defs>
</svg>
